G04*
G04 #@! TF.GenerationSoftware,Altium Limited,Altium Designer,19.0.10 (269)*
G04*
G04 Layer_Physical_Order=1*
G04 Layer_Color=255*
%FSLAX25Y25*%
%MOIN*%
G70*
G01*
G75*
%ADD11C,0.01000*%
%ADD16C,0.00100*%
%ADD18C,0.00800*%
%ADD20C,0.01200*%
%ADD22C,0.01500*%
%ADD23R,0.03150X0.03543*%
%ADD24R,0.07874X0.03543*%
%ADD25R,0.03543X0.07874*%
%ADD26R,0.05236X0.05236*%
%ADD27C,0.01181*%
%ADD28R,0.03543X0.02756*%
%ADD29R,0.02756X0.03543*%
%ADD30R,0.03543X0.03150*%
%ADD31R,0.02559X0.07677*%
%ADD32R,0.06181X0.07402*%
%ADD33R,0.05512X0.01181*%
%ADD34R,0.07874X0.05906*%
%ADD35R,0.05906X0.05906*%
%ADD36R,0.01181X0.03150*%
%ADD37R,0.03150X0.01181*%
%ADD38R,0.01772X0.05807*%
%ADD39R,0.15827X0.11654*%
%ADD40R,0.02559X0.06004*%
%ADD41R,0.03937X0.03937*%
%ADD42R,0.07402X0.06181*%
%ADD43R,0.01181X0.05512*%
%ADD44R,0.06496X0.02559*%
%ADD45R,0.12008X0.09055*%
%ADD46R,0.02362X0.05118*%
%ADD47R,0.13500X0.04949*%
%ADD48R,0.35500X0.42000*%
%ADD49R,0.02559X0.06299*%
%ADD50C,0.11000*%
%ADD51R,0.03740X0.06496*%
%ADD52R,0.12795X0.06496*%
%ADD53R,0.04724X0.09843*%
%ADD54R,0.27559X0.27559*%
%ADD55R,0.05906X0.09843*%
%ADD56R,0.05512X0.09016*%
%ADD57R,0.22402X0.24331*%
%ADD58R,0.06004X0.02559*%
%ADD59R,0.02165X0.01378*%
%ADD60R,0.02756X0.06299*%
%ADD61R,0.04528X0.02953*%
%ADD62R,0.02756X0.03740*%
%ADD63R,0.04331X0.02362*%
%ADD64R,0.05906X0.07874*%
%ADD65R,0.01772X0.05433*%
%ADD66R,0.05807X0.08268*%
%ADD67R,0.09350X0.07480*%
%ADD129C,0.02000*%
%ADD130C,0.03000*%
%ADD131C,0.10000*%
%ADD132C,0.04000*%
%ADD133C,0.03500*%
%ADD134C,0.05000*%
%ADD135C,0.06398*%
%ADD136C,0.05130*%
%ADD137R,0.06000X0.06000*%
%ADD138C,0.06000*%
%ADD139C,0.06791*%
%ADD140R,0.06791X0.06791*%
%ADD141C,0.10630*%
%ADD142C,0.07874*%
%ADD143R,0.07087X0.07087*%
%ADD144C,0.07087*%
%ADD145C,0.06496*%
%ADD146C,0.19685*%
%ADD147C,0.06102*%
%ADD148C,0.02362*%
G36*
X235433Y247244D02*
X238189Y244488D01*
Y238976D01*
X235630D01*
X230709Y243898D01*
X230709Y252756D01*
X235433D01*
Y247244D01*
D02*
G37*
G36*
X247638Y238976D02*
X238976D01*
Y244488D01*
X247638D01*
Y238976D01*
D02*
G37*
G36*
X255118Y242913D02*
X251171Y238967D01*
X248425D01*
Y244478D01*
X250394Y246447D01*
Y252746D01*
X255118D01*
X255118Y242913D01*
D02*
G37*
D11*
X18603Y176700D02*
X18433Y177739D01*
X17799Y178578D01*
X18164Y175552D02*
X18603Y176700D01*
X19000D02*
X18686Y177804D01*
X17839Y178578D01*
X17799Y174802D02*
X18675Y175577D01*
X19000Y176700D01*
X16001Y178598D02*
X15269Y178023D01*
X14857Y177187D01*
X14847Y176256D01*
X15241Y175412D01*
X15961Y174822D01*
X15637Y177848D02*
X15210Y176822D01*
X15343Y175718D01*
X16001Y174822D01*
X248931Y239795D02*
X249663Y240370D01*
X250074Y241206D01*
X250084Y242137D01*
X249690Y242981D01*
X248971Y243571D01*
X249295Y240545D02*
X249721Y241571D01*
X249588Y242675D01*
X248931Y243571D01*
X124498Y244104D02*
X124665Y243060D01*
X125301Y242216D01*
Y245992D02*
X124700Y245564D01*
X127099Y242197D02*
X127974Y242971D01*
X128300Y244094D01*
X127463Y242946D02*
X127903Y244094D01*
X127734Y245133D01*
X127099Y245973D01*
X128300Y244094D02*
X128268Y244460D01*
X124499Y244112D02*
X124498Y244104D01*
X124100Y244112D02*
X124100Y244104D01*
X124411Y242994D01*
X125261Y242216D01*
X180852Y241577D02*
X181331Y241300D01*
X173148Y275600D02*
X172012Y276038D01*
X170817Y275802D01*
X173898Y275235D02*
X173265Y276012D01*
X172345Y276408D01*
X171346Y276332D01*
X170496Y275802D01*
X181819Y241159D02*
X182954Y241273D01*
X183878Y241941D01*
X181468Y240809D02*
X182414Y240781D01*
X183275Y241172D01*
X183878Y241901D01*
X181331Y241300D02*
X181819Y241159D01*
X180572Y241300D02*
X181468Y240809D01*
X180102Y241941D02*
X180572Y241300D01*
X170496Y275802D02*
X170122Y275275D01*
X170817Y275802D02*
X170122Y275235D01*
X183898D02*
X183299Y275986D01*
X182429Y276392D01*
X181468Y276368D01*
X183148Y275600D02*
X181790Y276046D01*
X180817Y275802D01*
X181468Y276368D02*
X180496Y275802D01*
X180817D02*
X180122Y275235D01*
X180496Y275802D02*
X180122Y275275D01*
X173113Y241340D02*
X173878Y241941D01*
X173470Y241340D02*
X173878Y241901D01*
X170102Y241941D02*
X170725Y241172D01*
X171631Y240773D01*
X172619Y240833D01*
X173470Y241340D01*
X128268Y244460D02*
X127883Y245350D01*
X127139Y245973D01*
X182000Y272633D02*
X183039Y272803D01*
X183878Y273437D01*
X182000Y272236D02*
X183104Y272550D01*
X183878Y273397D01*
X183148Y244104D02*
X182200Y244518D01*
X183898Y243739D02*
X183206Y244559D01*
X182200Y244931D01*
X180852Y273073D02*
X182000Y272633D01*
X180102Y273437D02*
X180877Y272562D01*
X182000Y272236D01*
X182200Y244931D02*
X181369Y244843D01*
X180637Y244438D01*
X180122Y243779D01*
X182200Y244518D02*
X181055Y244411D01*
X180122Y243739D01*
X172000Y272633D02*
X173039Y272803D01*
X173878Y273437D01*
X172000Y272236D02*
X173104Y272550D01*
X173878Y273397D01*
X173148Y244104D02*
X172000Y244543D01*
X173898Y243739D02*
X173123Y244615D01*
X172000Y244940D01*
X170102Y273437D02*
X170877Y272562D01*
X172000Y272236D01*
X170852Y273073D02*
X172000Y272633D01*
Y244940D02*
X170896Y244626D01*
X170122Y243779D01*
X172000Y244543D02*
X170961Y244374D01*
X170122Y243739D01*
X170852Y241577D02*
X171949Y241142D01*
X173113Y241340D01*
X124936Y245243D02*
X124700Y244853D01*
Y245564D02*
X124259Y244897D01*
X124100Y244112D01*
X124700Y244853D02*
X124499Y244112D01*
X246768Y242841D02*
X246342Y241814D01*
X246475Y240711D01*
X247132Y239815D01*
Y243591D02*
X246400Y243016D01*
X245989Y242180D01*
X245979Y241249D01*
X246373Y240405D01*
X247092Y239815D01*
X239482Y239795D02*
X240214Y240370D01*
X240625Y241206D01*
X240635Y242137D01*
X240242Y242981D01*
X239522Y243571D01*
X239846Y240545D02*
X240272Y241571D01*
X240139Y242675D01*
X239482Y243571D01*
X237684Y243591D02*
X236951Y243016D01*
X236540Y242180D01*
X236530Y241249D01*
X236924Y240405D01*
X237644Y239815D01*
X237319Y242841D02*
X236893Y241814D01*
X237026Y240711D01*
X237684Y239815D01*
X148425Y177925D02*
Y181613D01*
X145600Y175100D02*
X148425Y177925D01*
X139900Y175100D02*
X145600D01*
X119914Y195086D02*
X139900Y175100D01*
X156299Y177399D02*
Y181613D01*
X152300Y173400D02*
X156299Y177399D01*
X139479Y173400D02*
X152300D01*
X156299Y181613D02*
Y205638D01*
X131679Y181200D02*
X139479Y173400D01*
X130100Y181200D02*
X131679D01*
X100943Y195086D02*
X119914D01*
X120100Y191200D02*
X130100Y181200D01*
X56887Y191200D02*
X120100D01*
X49186Y192700D02*
X98557D01*
X44644Y188158D02*
X49186Y192700D01*
X98557D02*
X100943Y195086D01*
X49644Y183957D02*
X56887Y191200D01*
X49644Y181398D02*
Y183957D01*
X148425Y181613D02*
Y184173D01*
X44644Y181398D02*
Y188158D01*
X11124Y81752D02*
Y84472D01*
X30300Y224697D02*
X47244Y241641D01*
X5400Y177821D02*
X30300Y202721D01*
Y224697D01*
X31800Y224076D02*
X48744Y241020D01*
X31800Y202100D02*
Y224076D01*
X11124Y181424D02*
X31800Y202100D01*
X44644Y225288D02*
X44756Y225400D01*
X89065Y174565D02*
X94400D01*
X69600Y155100D02*
X89065Y174565D01*
X47800Y155100D02*
X69600D01*
X42700Y160200D02*
X47800Y155100D01*
X42700Y160200D02*
Y172000D01*
X63500Y160000D02*
Y165800D01*
X60100Y156600D02*
X63500Y160000D01*
X53100Y156600D02*
X60100D01*
X72030Y153600D02*
X76777Y158347D01*
X46100Y153600D02*
X72030D01*
X37700Y162000D02*
X46100Y153600D01*
X47700Y162000D02*
X53100Y156600D01*
X64900Y176300D02*
X66900Y174300D01*
X62183Y176300D02*
X64900D01*
X59644Y178839D02*
X62183Y176300D01*
X66900Y169200D02*
Y174300D01*
X68400Y162700D02*
Y172742D01*
X67700Y162000D02*
X68400Y162700D01*
Y172742D02*
X73197Y177538D01*
X63500Y165800D02*
X66900Y169200D01*
X61910Y172790D02*
X62700Y172000D01*
X60692Y172790D02*
X61910D01*
X54644Y178839D02*
X60692Y172790D01*
X54644Y178839D02*
Y181398D01*
X59644Y178839D02*
Y181398D01*
X17799Y176700D02*
Y178578D01*
Y174802D02*
Y176700D01*
X29592Y175565D02*
X45259D01*
X19000Y176700D02*
X28457D01*
X18603D02*
X19000D01*
X18400D02*
X18603D01*
X28457D02*
X29592Y175565D01*
X5400Y79031D02*
Y177821D01*
Y79031D02*
X7679Y76752D01*
X9402D01*
X16001Y174822D02*
Y178598D01*
X11124Y110252D02*
Y181424D01*
Y110252D02*
X11391D01*
X11976Y109666D01*
Y105294D02*
Y109666D01*
X11391Y104709D02*
X11976Y105294D01*
X11152Y104709D02*
X11391D01*
X11152Y104032D02*
Y104709D01*
Y104032D02*
X12818D01*
X13404Y103446D01*
Y100058D02*
Y103446D01*
X12818Y99472D02*
X13404Y100058D01*
X11124Y99472D02*
X12818D01*
X11124Y99032D02*
Y99472D01*
Y89031D02*
Y89472D01*
Y89031D02*
X12818D01*
X13404Y88446D01*
Y85058D02*
Y88446D01*
X12818Y84472D02*
X13404Y85058D01*
X11124Y84472D02*
X12818D01*
X11124Y94032D02*
Y94472D01*
Y94032D02*
X12818D01*
X13404Y93446D01*
Y90058D02*
Y93446D01*
X12818Y89472D02*
X13404Y90058D01*
X11124Y89472D02*
X12818D01*
X11124Y99032D02*
X12818D01*
X13404Y98446D01*
Y95058D02*
Y98446D01*
X12818Y94472D02*
X13404Y95058D01*
X11124Y94472D02*
X12818D01*
X45259Y175565D02*
X48635Y172189D01*
X52511D01*
X52700Y172000D01*
X57700Y167000D01*
Y162000D02*
Y167000D01*
X106804Y176074D02*
Y176557D01*
X106431Y175701D02*
X106804Y176074D01*
X106431Y165328D02*
Y175701D01*
X105356Y164253D02*
X106431Y165328D01*
X94400Y164253D02*
X99844D01*
X94400D02*
Y168660D01*
X76777Y158347D02*
X94400D01*
X99509D01*
X102781Y161619D01*
Y172587D01*
X102691Y172677D02*
X102781Y172587D01*
X102039Y172677D02*
X102691D01*
X78600Y172000D02*
X85260Y178660D01*
X72700Y172000D02*
X78600D01*
X99747Y181600D02*
X104853Y186706D01*
Y183828D02*
Y186706D01*
X85260Y178660D02*
X94400D01*
X73197Y177538D02*
X80255D01*
X84317Y181600D01*
X99747D01*
X104853Y186706D02*
Y187100D01*
X104295Y183270D02*
X104853Y183828D01*
X104295Y180642D02*
Y183270D01*
X104204Y180551D02*
X104295Y180642D01*
X102039Y180551D02*
X104204D01*
X48744Y241020D02*
Y243682D01*
X47244Y241641D02*
Y244303D01*
X81900Y234400D02*
X101000Y215300D01*
X60856Y234400D02*
X81900D01*
X57303Y237953D02*
X60856Y234400D01*
X57303Y237953D02*
Y240118D01*
X34200Y246700D02*
X34569D01*
X35652Y247783D01*
X40067D01*
X41339Y249055D01*
X122681Y176519D02*
X123617Y175583D01*
X119457Y176519D02*
X122681D01*
X119361Y176614D02*
X119457Y176519D01*
X123617Y173726D02*
Y175583D01*
X122574Y172682D02*
X123617Y173726D01*
X119367Y172682D02*
X122574D01*
X123369Y180881D02*
X124100Y181613D01*
X122397Y180881D02*
X123369D01*
X122067Y180551D02*
X122397Y180881D01*
X123191Y178591D02*
X123300Y178700D01*
X119361Y180551D02*
X122067D01*
X119100Y171300D02*
Y172587D01*
X119191Y172677D01*
X119361D01*
X119367Y172682D01*
X102096Y176557D02*
X106804D01*
X102039Y176614D02*
X102096Y176557D01*
X94400Y174565D02*
X94440Y174606D01*
X101998D01*
X102039Y174646D01*
X102000Y178621D02*
X102039Y178583D01*
X94439Y178621D02*
X102000D01*
X94400Y178660D02*
X94439Y178621D01*
X115946Y174646D02*
X119361D01*
X114900Y173600D02*
X115946Y174646D01*
X114900Y171800D02*
Y173600D01*
X113700Y170600D02*
X114900Y171800D01*
X119370Y178591D02*
X123191D01*
X119361Y178583D02*
X119370Y178591D01*
X103455Y304055D02*
X108268D01*
X92400Y293000D02*
X103455Y304055D01*
X92400Y290200D02*
Y293000D01*
X259019Y104219D02*
X260000Y105200D01*
X220415Y104219D02*
X259019D01*
X216500Y108133D02*
X220415Y104219D01*
X275479Y102400D02*
X293334Y120255D01*
X288900Y113700D02*
X305500D01*
X276100Y100900D02*
X288900Y113700D01*
X119100Y127800D02*
X130600Y116300D01*
X109887Y127800D02*
X119100D01*
X130600Y116300D02*
X138100D01*
X137443Y236200D02*
X140643D01*
X136821Y237700D02*
X140021D01*
X143086Y238644D02*
X146400D01*
X140643Y236200D02*
X143086Y238644D01*
X144108Y241787D02*
X146400D01*
X140021Y237700D02*
X144108Y241787D01*
X145131Y244931D02*
X146400D01*
X139400Y239200D02*
X145131Y244931D01*
X136200Y239200D02*
X139400D01*
X136375Y235132D02*
X137443Y236200D01*
X134406Y235285D02*
X136821Y237700D01*
X132438Y235438D02*
X136200Y239200D01*
X136375Y233691D02*
Y235132D01*
X134406Y233691D02*
Y235285D01*
X132438Y233691D02*
Y235438D01*
X138253Y233600D02*
X142700D01*
X144600Y235500D02*
X146400D01*
X142700Y233600D02*
X144600Y235500D01*
X146255Y233319D02*
X168545D01*
X143298Y230361D02*
X146255Y233319D01*
X146876Y231819D02*
X167924D01*
X143450Y228393D02*
X146876Y231819D01*
X147498Y230319D02*
X167302D01*
X143603Y226424D02*
X147498Y230319D01*
X148119Y228819D02*
X166681D01*
X143756Y224456D02*
X148119Y228819D01*
X126175Y227150D02*
X126900Y226424D01*
X129591D01*
X126175Y227150D02*
Y227156D01*
X132347Y221590D02*
Y221700D01*
X132257Y221500D02*
X132347Y221590D01*
X134316Y233600D02*
X134406Y233691D01*
X132347Y233600D02*
X132438Y233691D01*
X127769Y231200D02*
X128607Y230361D01*
X127600Y231200D02*
X127769D01*
X136284Y233600D02*
X136375Y233691D01*
X121600Y224456D02*
X129447D01*
X146435Y238679D02*
Y238700D01*
X146400Y238644D02*
X146435Y238679D01*
X128607Y230361D02*
X129591D01*
X128300Y221500D02*
X132257D01*
X124500Y228831D02*
X126175Y227156D01*
X129447Y224600D02*
X129591Y224456D01*
X124500Y228831D02*
Y229200D01*
X134253Y217400D02*
X146747D01*
X141300Y218900D02*
X144206Y221806D01*
X137473Y218900D02*
X141300D01*
X136375Y219998D02*
X137473Y218900D01*
X144206Y221806D02*
X146647D01*
X147800Y225300D02*
X160716D01*
X146647Y224147D02*
X147800Y225300D01*
X146647Y222200D02*
Y224147D01*
Y221806D02*
Y222200D01*
X160716Y225300D02*
X161317Y224700D01*
X168000Y241749D02*
Y275200D01*
Y241749D02*
X170509Y239240D01*
X179900D01*
X181468Y240809D01*
X191732Y205638D02*
Y212253D01*
X151400Y252585D02*
X191732Y212253D01*
X190307Y215800D02*
X193900D01*
X152900Y253207D02*
X190307Y215800D01*
X151400Y252585D02*
Y259220D01*
X152900Y253207D02*
Y259842D01*
X168000Y275200D02*
X168602Y275802D01*
X177173Y169191D02*
Y224691D01*
X175673Y168569D02*
Y224069D01*
X174173Y167948D02*
Y223448D01*
X168545Y233319D02*
X177173Y224691D01*
X167924Y231819D02*
X175673Y224069D01*
X167302Y230319D02*
X174173Y223448D01*
X172673Y167327D02*
Y222827D01*
X166681Y228819D02*
X172673Y222827D01*
X141009Y230361D02*
X143298D01*
X141009Y228393D02*
X143450D01*
X141009Y226424D02*
X143603D01*
X141009Y224456D02*
X143756D01*
X113419Y218341D02*
X147535Y184224D01*
X148374D01*
X111919Y217719D02*
Y230881D01*
X113419Y218341D02*
Y251069D01*
X123752Y210128D02*
X151809D01*
X114919Y218962D02*
Y254569D01*
X124374Y211628D02*
X164629D01*
X116419Y219583D02*
Y258069D01*
X124995Y213128D02*
X165250D01*
X117919Y220204D02*
Y264881D01*
X111919Y217719D02*
X111981Y217657D01*
Y214397D02*
Y217657D01*
X114919Y218962D02*
X123752Y210128D01*
X116419Y219583D02*
X124374Y211628D01*
X117919Y220204D02*
X124995Y213128D01*
X125616Y214628D02*
X165872D01*
X119419Y220826D02*
X125616Y214628D01*
X119419Y220826D02*
Y268381D01*
X110433Y254055D02*
X113419Y251069D01*
X108268Y254055D02*
X110433D01*
X113745Y274055D02*
X119419Y268381D01*
X113745Y269055D02*
X117919Y264881D01*
X110433Y264055D02*
X116419Y258069D01*
X110433Y259055D02*
X114919Y254569D01*
X101500Y241300D02*
X111919Y230881D01*
X103222Y205638D02*
X111981Y214397D01*
X134284Y221669D02*
X134316Y221700D01*
X134284Y217431D02*
Y221669D01*
X134253Y217400D02*
X134284Y217431D01*
X169673Y161142D02*
Y208705D01*
X168173Y160521D02*
Y208084D01*
X164629Y211628D02*
X168173Y208084D01*
X165250Y213128D02*
X169673Y208705D01*
X171173Y162727D02*
Y209327D01*
X165872Y214628D02*
X171173Y209327D01*
X151809Y210128D02*
X156299Y205638D01*
X148374Y184224D02*
X148425Y184173D01*
X148374Y184224D02*
Y205538D01*
X136375Y219998D02*
Y221609D01*
X136284Y221700D02*
X136375Y221609D01*
X193900Y215800D02*
X199562Y210138D01*
X188916Y141900D02*
X215200D01*
X169673Y161142D02*
X188916Y141900D01*
X188294Y140400D02*
X202800D01*
X168173Y160521D02*
X188294Y140400D01*
X206400Y131310D02*
Y136800D01*
X202800Y140400D02*
X206400Y136800D01*
X215200Y141900D02*
X221388Y135712D01*
X201500Y131210D02*
Y134700D01*
X171173Y162727D02*
X172300Y161600D01*
X221388Y131323D02*
Y135712D01*
Y131323D02*
X221500Y131210D01*
X206400Y131310D02*
X206500Y131210D01*
X248931Y239795D02*
Y241693D01*
Y243571D01*
X101383Y217481D02*
X107400D01*
X102362Y205638D02*
X103222D01*
X101000Y215300D02*
X109800D01*
X92303Y226561D02*
X101383Y217481D01*
X92303Y226561D02*
Y240118D01*
X101600Y297269D02*
X103386Y299055D01*
X101600Y288608D02*
Y297269D01*
X63311Y250319D02*
X101600Y288608D01*
X216500Y131210D02*
Y135200D01*
X98575Y255813D02*
X102362Y259600D01*
X98575Y241449D02*
Y255813D01*
X97244Y240118D02*
X98575Y241449D01*
X97244Y232677D02*
Y240118D01*
X103386Y299055D02*
X108268D01*
X112716D01*
X101500Y247600D02*
X102955Y249055D01*
X101500Y241300D02*
Y247600D01*
X108268Y264055D02*
X110433D01*
X108268Y269055D02*
X113745D01*
X108268Y274055D02*
X113745D01*
X177173Y169191D02*
X181598Y164766D01*
X175673Y168569D02*
X180977Y163266D01*
X174173Y167948D02*
X180356Y161766D01*
X172673Y167327D02*
X179734Y160266D01*
X181598Y164766D02*
X434943D01*
X180977Y163266D02*
X441565D01*
X180356Y161766D02*
X450065D01*
X179734Y160266D02*
X445159D01*
X108268Y259055D02*
X110433D01*
X125301Y245243D02*
Y245992D01*
Y242216D02*
Y244094D01*
Y244104D02*
Y244112D01*
Y244094D02*
Y244104D01*
X127099Y245973D02*
Y245973D01*
Y245973D02*
Y245973D01*
Y245973D02*
Y245973D01*
Y245973D02*
Y245973D01*
Y245973D02*
Y245973D01*
Y242197D02*
Y242946D01*
Y245973D02*
Y245973D01*
Y244094D02*
Y245973D01*
Y242946D02*
Y244094D01*
X445159Y160266D02*
X451862Y153563D01*
X453740D01*
X102955Y249055D02*
X108268D01*
X451862Y163563D02*
X453740D01*
X450065Y161766D02*
X451862Y163563D01*
X434943Y164766D02*
X453740Y183563D01*
X191732Y179638D02*
Y205638D01*
X132336Y265685D02*
X147057D01*
X116800Y281221D02*
X132336Y265685D01*
X116800Y281221D02*
Y294971D01*
X131715Y264185D02*
X146435D01*
X114988Y280912D02*
X131715Y264185D01*
X114988Y280912D02*
Y282367D01*
X108268Y284055D02*
X113300D01*
X114988Y282367D01*
X108268Y284055D02*
X108268Y284055D01*
X112716Y299055D02*
X116800Y294971D01*
X146435Y264185D02*
X151400Y259220D01*
X133235Y267185D02*
X155706D01*
X119488Y280932D02*
X133235Y267185D01*
X133442Y269100D02*
X141979D01*
X122300Y280242D02*
X133442Y269100D01*
X181468Y276368D02*
X181790Y276046D01*
X122300Y280242D02*
Y291283D01*
X119488Y280932D02*
Y289055D01*
X108268Y284055D02*
X108268Y284055D01*
X99169Y284055D02*
X108268D01*
X109912Y138181D02*
X165508D01*
X186831Y116858D02*
X216220D01*
X165508Y138181D02*
X186831Y116858D01*
X109035Y128652D02*
X109887Y127800D01*
X216500Y109856D02*
Y111578D01*
Y108133D02*
Y109856D01*
X162044Y106819D02*
X169083Y113858D01*
X147581Y106819D02*
X162044D01*
X169083Y113858D02*
X209221D01*
X168461Y115358D02*
X212720D01*
X162103Y109000D02*
X168461Y115358D01*
X149300Y109000D02*
X162103D01*
X209221Y113858D02*
X211500Y111578D01*
X212720Y115358D02*
X216500Y111578D01*
X216220Y116858D02*
X221500Y111578D01*
Y109856D02*
Y111578D01*
X211500Y109856D02*
Y111578D01*
X106861Y135130D02*
X109912Y138181D01*
X106861Y132486D02*
Y135130D01*
X106476Y132100D02*
X106861Y132486D01*
X109035Y128652D02*
Y132100D01*
X138100Y116300D02*
X147581Y106819D01*
X139281Y112870D02*
X148151Y104000D01*
X112853Y112870D02*
X139281D01*
X148151Y104000D02*
X197366D01*
X305500Y113700D02*
X306476Y112724D01*
X208734Y100900D02*
X276100D01*
X212233Y102400D02*
X275479D01*
X293334Y120255D02*
Y123826D01*
X301358Y104457D02*
Y108966D01*
X298900Y102000D02*
X301358Y104457D01*
X201500Y108133D02*
X208734Y100900D01*
X206500Y108133D02*
X212233Y102400D01*
X114750Y96300D02*
X121200D01*
X106488Y104563D02*
X114750Y96300D01*
X106476Y108966D02*
X106488Y108954D01*
Y104563D02*
Y108954D01*
X306476Y108966D02*
Y112724D01*
X201500Y108133D02*
Y109856D01*
X293334Y123826D02*
X296868Y127360D01*
X299400Y140600D02*
X301358Y138643D01*
Y132100D02*
Y138643D01*
X290600Y140600D02*
X299400D01*
X284900Y134900D02*
X290600Y140600D01*
X284900Y128786D02*
Y134900D01*
X278614Y122500D02*
X284900Y128786D01*
X232422Y122500D02*
X278614D01*
X221500Y111578D02*
X232422Y122500D01*
X296868Y127360D02*
X303150D01*
X303917Y128127D01*
Y132100D01*
X206500Y108133D02*
Y109856D01*
X197366Y104000D02*
X201500Y108133D01*
X111979Y111996D02*
X112853Y112870D01*
X111979Y109352D02*
Y111996D01*
X111594Y108966D02*
X111979Y109352D01*
X105905Y88583D02*
X156720D01*
X118898Y73740D02*
X121535D01*
X114961Y77677D02*
X118898Y73740D01*
X441565Y163266D02*
X451862Y173563D01*
X204457Y166913D02*
X411241D01*
X191732Y179638D02*
X204457Y166913D01*
X638583Y315748D02*
X639370Y314961D01*
X718819D02*
Y315303D01*
X717323Y315064D02*
X718580D01*
X125301Y244112D02*
Y245243D01*
X147638Y288189D02*
Y293793D01*
X181400Y241941D02*
X182000D01*
X183878D01*
X172000Y275235D02*
X173898D01*
X180102Y241941D02*
X181400D01*
X170817Y275802D02*
X171965D01*
X181819Y241159D02*
X182000Y241340D01*
X180572Y241300D02*
X181331D01*
X168602Y275802D02*
X170496D01*
X170122Y275235D02*
X172000D01*
X181790Y276046D02*
X182000Y275836D01*
X178423Y279413D02*
X181468Y276368D01*
X178389Y275802D02*
X180496D01*
X180122Y275235D02*
X182000D01*
X183898D01*
X172400Y241941D02*
X173878D01*
X172000D02*
X172400D01*
X173470Y241340D02*
X174939D01*
X170102Y241941D02*
X172000D01*
X182000Y273437D02*
X183878D01*
X182000Y272236D02*
Y272633D01*
Y272836D01*
X182200Y244931D02*
Y258388D01*
Y243739D02*
X183898D01*
X182200D02*
Y244518D01*
Y244931D01*
X182000Y243739D02*
X182200D01*
X180102Y273437D02*
X182000D01*
Y258588D02*
Y272236D01*
X180122Y243739D02*
X182000D01*
X172000Y273437D02*
X173878D01*
X172000Y272236D02*
Y272633D01*
Y272836D01*
Y258588D02*
Y272236D01*
Y243739D02*
X173898D01*
X172000Y244940D02*
Y258588D01*
Y244340D02*
Y244543D01*
X170102Y273437D02*
X172000D01*
Y244543D02*
Y244940D01*
X170122Y243739D02*
X172000D01*
X142476Y309799D02*
X143700Y308576D01*
Y273700D02*
Y308576D01*
X174409Y309509D02*
Y314961D01*
X168900Y304000D02*
X174409Y309509D01*
X162500Y304000D02*
X168900D01*
X164323Y275802D02*
X168602D01*
X155706Y267185D02*
X164323Y275802D01*
X165813Y279413D02*
X178423D01*
X155085Y268685D02*
X165813Y279413D01*
X142394Y268685D02*
X155085D01*
X141979Y269100D02*
X142394Y268685D01*
X147057Y265685D02*
X152900Y259842D01*
X119488Y294094D02*
X122300Y291283D01*
X171965Y275802D02*
X172000Y275836D01*
X176000Y242401D02*
Y273413D01*
X174939Y241340D02*
X176000Y242401D01*
Y273413D02*
X178389Y275802D01*
X182000Y258588D02*
X182200Y258388D01*
X199562Y205682D02*
Y210138D01*
Y205682D02*
X199606Y205638D01*
X130600Y277500D02*
Y297647D01*
X137008Y304055D01*
X416656Y194256D02*
Y310509D01*
X399731Y177331D02*
X416656Y194256D01*
X399731Y172425D02*
Y177331D01*
X396400Y169095D02*
X405807D01*
X210150D02*
X396400D01*
X399731Y172425D01*
X675685Y316900D02*
X684530Y308055D01*
X665800Y316900D02*
X675685D01*
X663600Y314700D02*
X665800Y316900D01*
X684530Y308055D02*
X703230D01*
X758560Y307268D02*
X775647Y290180D01*
Y283465D02*
Y290180D01*
X704018Y307268D02*
X758560D01*
X703230Y308055D02*
X704018Y307268D01*
X688245Y306555D02*
X702170Y292630D01*
X675945Y306555D02*
X688245D01*
X670800Y311700D02*
X675945Y306555D01*
X702170Y282712D02*
Y292630D01*
X663479Y311700D02*
X670800D01*
X247132Y241693D02*
Y243591D01*
Y239815D02*
Y241693D01*
X239482D02*
Y243571D01*
Y239795D02*
Y241693D01*
X9402Y81752D02*
X11124D01*
X171677Y319512D02*
Y324000D01*
X631000Y281500D02*
Y287621D01*
X636979Y293600D02*
X655621D01*
X656721Y292500D01*
X659500D01*
X755009Y238616D02*
X764727Y248335D01*
X699112Y238616D02*
X755009D01*
X679819Y257909D02*
X699112Y238616D01*
X631000Y287621D02*
X636979Y293600D01*
X655000Y292100D02*
X656974Y290126D01*
X637600Y292100D02*
X655000D01*
X635000Y289500D02*
X637600Y292100D01*
X635000Y281500D02*
Y289500D01*
X648776Y288626D02*
X678116D01*
X647638Y289764D02*
X648776Y288626D01*
X656974Y290126D02*
X669726D01*
X670500Y290900D01*
X678116Y288626D02*
X679819Y286923D01*
X667500Y306500D02*
X683000Y291000D01*
X650500Y306500D02*
X667500D01*
X640500Y296500D02*
X650500Y306500D01*
X683000Y291000D02*
X687000D01*
X690000Y288000D01*
Y250551D02*
Y288000D01*
X679819Y257909D02*
Y286923D01*
X416656Y310509D02*
X438919Y332773D01*
X418504Y309744D02*
X439862Y331102D01*
X418504Y309744D02*
X418504Y179921D01*
X199606Y179638D02*
X210150Y169095D01*
X475984Y110630D02*
Y229134D01*
X477484Y108587D02*
Y229755D01*
X455118Y89764D02*
X475984Y110630D01*
X463070Y244169D02*
X477484Y229755D01*
X457874Y88976D02*
X477484Y108587D01*
X461101Y244017D02*
X475984Y229134D01*
X418504Y170138D02*
Y179921D01*
X415279Y166913D02*
X418504Y170138D01*
X717717Y294055D02*
X717756Y294094D01*
X715394Y291732D02*
X717717Y294055D01*
X718580Y315064D02*
X718819Y315303D01*
X638686Y315748D02*
X639370Y315064D01*
X638583Y315748D02*
X638686D01*
X690000Y250551D02*
X690945Y249606D01*
X237684Y241693D02*
Y243591D01*
Y239815D02*
Y241693D01*
X199606Y179638D02*
Y205638D01*
X127165Y309055D02*
X132087D01*
X127165D02*
Y321654D01*
X132087Y309055D02*
X132087Y309055D01*
X121260Y327559D02*
X127165Y321654D01*
X173843Y330141D02*
X174236Y329748D01*
Y324000D02*
Y329748D01*
X630000Y136429D02*
Y137500D01*
X628138Y139362D02*
X630000Y137500D01*
X628138Y139362D02*
Y186860D01*
X631000Y187500D02*
X732590D01*
X782390Y137701D01*
X782783D01*
X783661Y136823D01*
Y136429D02*
Y136823D01*
X451862Y173563D02*
X453740D01*
X438919Y332773D02*
X711782D01*
X439862Y331102D02*
X708453D01*
X711782Y332773D02*
X717343Y327213D01*
X717756Y294094D02*
X727953D01*
X690945Y249606D02*
X695999D01*
X764727Y248335D02*
X765121D01*
X765999Y249213D01*
Y249606D01*
X451968Y82953D02*
X455028D01*
X361024D02*
X364083D01*
X298031D02*
X301091D01*
X235039Y83071D02*
X238098D01*
X42894Y76752D02*
X49213Y83071D01*
X51968D01*
X55028D01*
X103150D02*
X106209D01*
X154331Y83071D02*
X157390D01*
X157480Y82980D01*
Y81890D02*
Y82980D01*
X463070Y244169D02*
Y256693D01*
X461101Y244017D02*
Y256693D01*
X455118Y88583D02*
Y89764D01*
X461609Y85827D02*
X471260D01*
X461024Y85241D02*
X461609Y85827D01*
X461024Y81772D02*
Y85241D01*
X463779Y77559D02*
X467717Y73622D01*
X459842Y77559D02*
X463779D01*
X454409Y260906D02*
X458346D01*
X459043Y260209D01*
Y256783D02*
Y260209D01*
X457087Y81772D02*
Y86614D01*
Y81772D02*
X457087Y81772D01*
X455118Y88583D02*
X457087Y86614D01*
X364173Y88583D02*
X455118D01*
X366142Y81772D02*
Y86614D01*
Y81772D02*
X366142Y81772D01*
X364173Y88583D02*
X366142Y86614D01*
X300697Y88583D02*
X364173D01*
X370665Y85827D02*
X380315D01*
X370079Y85241D02*
X370665Y85827D01*
X380315D02*
X383858Y82284D01*
X370079Y81772D02*
Y85241D01*
X303150Y81772D02*
Y86130D01*
X300697Y88583D02*
X303150Y86130D01*
X238189Y88583D02*
X300697D01*
X307672Y85827D02*
X317323D01*
X307087Y85241D02*
X307672Y85827D01*
X307087Y81772D02*
Y85241D01*
X317323Y85827D02*
X320866Y82284D01*
X240158Y81890D02*
Y86614D01*
X238189Y88583D02*
X240158Y86614D01*
X156720Y88583D02*
X238189D01*
X159358Y81980D02*
Y85945D01*
Y81980D02*
X159449Y81890D01*
X156720Y88583D02*
X159358Y85945D01*
X163386Y85359D02*
X163972Y85945D01*
X163386Y81890D02*
Y85359D01*
X163972Y85945D02*
X173622D01*
X177165Y82402D01*
Y74528D02*
Y82402D01*
X108268Y81890D02*
Y86221D01*
X105905Y88583D02*
X108268Y86221D01*
X51575Y88583D02*
X105905D01*
X112205Y85359D02*
X112791Y85945D01*
X112205Y81890D02*
Y85359D01*
X112791Y85945D02*
X122441D01*
X111024Y77677D02*
X114961D01*
X107105Y68522D02*
X108177Y67450D01*
X102738Y68522D02*
X107105D01*
X122441Y85945D02*
X125984Y82402D01*
Y74528D02*
Y82402D01*
X61609Y85945D02*
X71260D01*
X74803Y82402D01*
X61024Y85359D02*
X61609Y85945D01*
X61024Y81890D02*
Y85359D01*
X49606Y86614D02*
X51575Y88583D01*
X56996Y81980D02*
Y85827D01*
X56209Y86614D02*
X56996Y85827D01*
X49606Y86614D02*
X56209D01*
X56996Y81980D02*
X57087Y81890D01*
X44744Y81752D02*
X49606Y86614D01*
X37402Y81752D02*
X44744D01*
X37402Y76752D02*
X42894D01*
X705905Y291732D02*
X715394D01*
X647244Y314961D02*
X647244D01*
X167348Y319772D02*
X168732Y321157D01*
Y323614D01*
X169118Y324000D01*
X147638Y293793D02*
X164173Y310329D01*
Y315064D01*
X108268Y294055D02*
X108622Y293701D01*
X708453Y331102D02*
X712297Y327258D01*
X413091Y168763D02*
Y169095D01*
X411241Y166913D02*
X415279D01*
X411241D02*
X413091Y168763D01*
X63932Y248819D02*
X99169Y284055D01*
X53881Y248819D02*
X63932D01*
X48744Y243682D02*
X53881Y248819D01*
X53260Y250319D02*
X63311D01*
X47244Y244303D02*
X53260Y250319D01*
X14961Y264173D02*
X14961Y264173D01*
X14961Y264173D02*
Y268898D01*
X14961Y274410D02*
X14961Y274410D01*
X14961Y274410D02*
Y278740D01*
X41181Y268898D02*
X41339Y269055D01*
X14961Y268898D02*
X41181D01*
X40984Y274410D02*
X41339Y274055D01*
X14961Y274410D02*
X40984D01*
X103543Y227559D02*
X103937Y227166D01*
X103543Y227559D02*
Y232283D01*
X103150Y232677D02*
X103543Y232283D01*
X461024Y273819D02*
X461114Y273728D01*
Y270936D02*
Y273728D01*
Y270936D02*
X462187Y269864D01*
X466554D01*
X468504Y267913D01*
X468898D01*
X456996Y64539D02*
X457087Y64449D01*
X456996Y64539D02*
Y67331D01*
X455924Y68404D02*
X456996Y67331D01*
X451557Y68404D02*
X455924D01*
X449606Y70354D02*
X451557Y68404D01*
X449213Y70354D02*
X449606D01*
X366051Y64539D02*
X366142Y64449D01*
X366051Y64539D02*
Y67331D01*
X364979Y68404D02*
X366051Y67331D01*
X360612Y68404D02*
X364979D01*
X358661Y70354D02*
X360612Y68404D01*
X358268Y70354D02*
X358661D01*
X303059Y64539D02*
X303150Y64449D01*
X303059Y64539D02*
Y67331D01*
X301987Y68404D02*
X303059Y67331D01*
X297620Y68404D02*
X301987D01*
X295669Y70354D02*
X297620Y68404D01*
X295276Y70354D02*
X295669D01*
X240067Y64657D02*
X240158Y64567D01*
X240067Y64657D02*
Y67450D01*
X238995Y68522D02*
X240067Y67450D01*
X234628Y68522D02*
X238995D01*
X232677Y70472D02*
X234628Y68522D01*
X232283Y70472D02*
X232677D01*
X159358Y64657D02*
X159449Y64567D01*
X159358Y64657D02*
Y67450D01*
X158286Y68522D02*
X159358Y67450D01*
X153919Y68522D02*
X158286D01*
X151969Y70473D02*
X153919Y68522D01*
X151575Y70473D02*
X151969D01*
X108177Y64657D02*
X108268Y64567D01*
X108177Y64657D02*
Y67450D01*
X100787Y70472D02*
X102738Y68522D01*
X100394Y70472D02*
X100787D01*
X447322Y265354D02*
X447834Y264843D01*
X450472D01*
X454409Y260906D01*
X459043Y256783D02*
X459133Y256693D01*
X470354Y73622D02*
X470866Y73110D01*
X467717Y73622D02*
X470354D01*
X459146Y78256D02*
X459842Y77559D01*
X459055Y81772D02*
X459146Y81681D01*
Y78256D02*
Y81681D01*
X379410Y73622D02*
X379921Y73110D01*
X376772Y73622D02*
X379410D01*
X368898Y77559D02*
X372835D01*
X376772Y73622D01*
X368201Y78256D02*
X368898Y77559D01*
X368110Y81772D02*
X368201Y81681D01*
Y78256D02*
Y81681D01*
X253425Y73740D02*
X253937Y73228D01*
X250787Y73740D02*
X253425D01*
X242913Y77677D02*
X246850D01*
X250787Y73740D01*
X242216Y78374D02*
X242913Y77677D01*
X242126Y81890D02*
X242216Y81799D01*
Y78374D02*
Y81799D01*
X172716Y73740D02*
X173228Y73228D01*
X170079Y73740D02*
X172716D01*
X162205Y77677D02*
X166142D01*
X170079Y73740D01*
X161508Y78374D02*
X162205Y77677D01*
X161417Y81890D02*
X161508Y81799D01*
Y78374D02*
Y81799D01*
X121535Y73740D02*
X122047Y73228D01*
X110327Y78374D02*
X111024Y77677D01*
X110236Y81890D02*
X110327Y81799D01*
Y78374D02*
Y81799D01*
X70354Y73740D02*
X70866Y73228D01*
X67716Y73740D02*
X70354D01*
X59842Y77677D02*
X63779D01*
X67716Y73740D01*
X59146Y78374D02*
X59842Y77677D01*
X59055Y81890D02*
X59146Y81799D01*
Y78374D02*
Y81799D01*
X305209Y78256D02*
Y81681D01*
X305118Y81772D02*
X305209Y81681D01*
Y78256D02*
X305906Y77559D01*
X457164Y253224D02*
Y256693D01*
X456579Y252638D02*
X457164Y253224D01*
X443385Y256181D02*
Y264055D01*
X442204Y265236D02*
X443385Y264055D01*
X439448Y265354D02*
X439566Y265236D01*
X442204D01*
X446928Y252638D02*
X456579D01*
X443385Y256181D02*
X446928Y252638D01*
X474803Y74410D02*
Y82284D01*
Y74410D02*
X475984Y73228D01*
X478622D02*
X478740Y73110D01*
X475984Y73228D02*
X478622D01*
X471260Y85827D02*
X474803Y82284D01*
X383858Y74410D02*
Y82284D01*
Y74410D02*
X385039Y73228D01*
X387677D02*
X387795Y73110D01*
X385039Y73228D02*
X387677D01*
X177165Y74528D02*
X178347Y73347D01*
X180984D02*
X181102Y73228D01*
X178347Y73347D02*
X180984D01*
X125984Y74528D02*
X127165Y73347D01*
X129803D02*
X129921Y73228D01*
X127165Y73347D02*
X129803D01*
X74803Y74528D02*
Y82402D01*
Y74528D02*
X75984Y73347D01*
X78622D02*
X78740Y73228D01*
X75984Y73347D02*
X78622D01*
X244094Y81890D02*
Y85359D01*
X244680Y85945D01*
X257874Y74528D02*
Y82402D01*
Y74528D02*
X259055Y73347D01*
X261693D02*
X261811Y73228D01*
X259055Y73347D02*
X261693D01*
X244680Y85945D02*
X254331D01*
X257874Y82402D01*
X322047Y73228D02*
X324685D01*
X324803Y73110D01*
X320866Y74410D02*
X322047Y73228D01*
X320866Y74410D02*
Y82284D01*
X309842Y77559D02*
X313779Y73622D01*
X305906Y77559D02*
X309842D01*
X313779Y73622D02*
X316417D01*
X316929Y73110D01*
X49213Y70472D02*
X49606D01*
X51557Y68522D01*
X55924D01*
X56996Y67450D01*
Y64657D02*
Y67450D01*
Y64657D02*
X57087Y64567D01*
X30756Y76752D02*
X37402D01*
X30756Y81752D02*
X37402D01*
D16*
X2800Y248100D02*
X12700D01*
X16800D02*
X22700D01*
X23600D02*
X27000D01*
X2500Y248000D02*
X12900D01*
X16600D02*
X22900D01*
X23700D02*
X27200D01*
X2400Y247900D02*
X13100D01*
X16400D02*
X23000D01*
X23700D02*
X27300D01*
X2300Y247800D02*
X13100D01*
X16400D02*
X23000D01*
X23700D02*
X27400D01*
X2200Y247700D02*
X13200D01*
X16300D02*
X23000D01*
X23700D02*
X27500D01*
X2200Y247600D02*
X13200D01*
X16300D02*
X23000D01*
X23700D02*
X27500D01*
X2200Y247500D02*
X13200D01*
X16300D02*
X23000D01*
X23700D02*
X27500D01*
X2200Y247400D02*
X13200D01*
X16300D02*
X23000D01*
X23700D02*
X27500D01*
X2200Y247300D02*
X13200D01*
X16300D02*
X23000D01*
X23700D02*
X27500D01*
X2200Y247200D02*
X13100D01*
X16300D02*
X22900D01*
X23700D02*
X27500D01*
X2300Y247100D02*
X13100D01*
X16400D02*
X22800D01*
X23600D02*
X27500D01*
X2400Y247000D02*
X13000D01*
X16500D02*
X22600D01*
X23600D02*
X27400D01*
X2500Y246900D02*
X12800D01*
X16700D02*
X22400D01*
X23500D02*
X27400D01*
X2700Y246800D02*
X12600D01*
X17000D02*
X22200D01*
X23500D02*
X27200D01*
X2900Y246700D02*
X12400D01*
X17200D02*
X22000D01*
X23400D02*
X27000D01*
X3100Y246600D02*
X12300D01*
X17400D02*
X21800D01*
X23300D02*
X26700D01*
X3200Y246500D02*
X12200D01*
X17600D02*
X21600D01*
X23100D02*
X26500D01*
X3400Y246400D02*
X12100D01*
X17800D02*
X21400D01*
X22900D02*
X26300D01*
X3500Y246300D02*
X12000D01*
X17900D02*
X21300D01*
X22700D02*
X26100D01*
X3500Y246200D02*
X11900D01*
X18000D02*
X21100D01*
X22500D02*
X26000D01*
X3600Y246100D02*
X11900D01*
X18100D02*
X21000D01*
X22300D02*
X25900D01*
X3600Y246000D02*
X11800D01*
X18200D02*
X20900D01*
X22100D02*
X25800D01*
X3700Y245900D02*
X11800D01*
X18200D02*
X20800D01*
X21900D02*
X25800D01*
X3700Y245800D02*
X11800D01*
X18300D02*
X20700D01*
X21700D02*
X25800D01*
X3700Y245700D02*
X11800D01*
X18400D02*
X20700D01*
X21600D02*
X25700D01*
X3800Y245600D02*
X11800D01*
X18400D02*
X20600D01*
X21500D02*
X25700D01*
X3800Y245500D02*
X11700D01*
X18400D02*
X20500D01*
X21400D02*
X25700D01*
X3800Y245400D02*
X11700D01*
X18500D02*
X20400D01*
X21300D02*
X25700D01*
X3800Y245300D02*
X11700D01*
X18500D02*
X20400D01*
X21200D02*
X25700D01*
X3900Y245200D02*
X11800D01*
X18500D02*
X20300D01*
X21100D02*
X25700D01*
X3900Y245100D02*
X11800D01*
X18500D02*
X20300D01*
X21000D02*
X25700D01*
X3900Y245000D02*
X11800D01*
X18500D02*
X20200D01*
X21000D02*
X25700D01*
X4000Y244900D02*
X11800D01*
X18500D02*
X20200D01*
X20900D02*
X25700D01*
X4000Y244800D02*
X11800D01*
X18500D02*
X20100D01*
X20900D02*
X25700D01*
X4000Y244700D02*
X11800D01*
X18600D02*
X20100D01*
X20800D02*
X25700D01*
X4100Y244600D02*
X11900D01*
X18600D02*
X20000D01*
X20700D02*
X25700D01*
X4100Y244500D02*
X11900D01*
X18500D02*
X20000D01*
X20700D02*
X25700D01*
X4100Y244400D02*
X11900D01*
X18500D02*
X19900D01*
X20600D02*
X25700D01*
X4100Y244300D02*
X12000D01*
X18500D02*
X19900D01*
X20600D02*
X25700D01*
X4200Y244200D02*
X12000D01*
X18500D02*
X19800D01*
X20600D02*
X25700D01*
X4200Y244100D02*
X12000D01*
X18500D02*
X19800D01*
X20500D02*
X25700D01*
X4200Y244000D02*
X12000D01*
X18500D02*
X19800D01*
X20500D02*
X25700D01*
X4300Y243900D02*
X12100D01*
X18500D02*
X19700D01*
X20400D02*
X25700D01*
X4300Y243800D02*
X12100D01*
X18500D02*
X19700D01*
X20400D02*
X25700D01*
X4300Y243700D02*
X12100D01*
X18400D02*
X19700D01*
X20400D02*
X25700D01*
X4400Y243600D02*
X12200D01*
X18400D02*
X19600D01*
X20300D02*
X25700D01*
X4400Y243500D02*
X12200D01*
X18400D02*
X19600D01*
X20300D02*
X25700D01*
X4400Y243400D02*
X12200D01*
X18300D02*
X19600D01*
X20300D02*
X25700D01*
X4400Y243300D02*
X12200D01*
X18300D02*
X19500D01*
X20200D02*
X25700D01*
X4500Y243200D02*
X12300D01*
X18300D02*
X19500D01*
X20200D02*
X25700D01*
X4500Y243100D02*
X12300D01*
X18300D02*
X19500D01*
X20200D02*
X25700D01*
X4500Y243000D02*
X12300D01*
X18200D02*
X19500D01*
X20100D02*
X25700D01*
X4600Y242900D02*
X12400D01*
X18200D02*
X19400D01*
X20100D02*
X25700D01*
X4600Y242800D02*
X12400D01*
X18200D02*
X19400D01*
X20100D02*
X25700D01*
X4600Y242700D02*
X12400D01*
X18100D02*
X19400D01*
X20100D02*
X25700D01*
X4700Y242600D02*
X12400D01*
X18100D02*
X19400D01*
X20000D02*
X25700D01*
X4700Y242500D02*
X12500D01*
X18100D02*
X19300D01*
X20000D02*
X25700D01*
X4700Y242400D02*
X12500D01*
X18100D02*
X19300D01*
X20000D02*
X25700D01*
X4700Y242300D02*
X12500D01*
X18000D02*
X19300D01*
X20000D02*
X25700D01*
X4800Y242200D02*
X12600D01*
X18000D02*
X19200D01*
X19900D02*
X25700D01*
X4800Y242100D02*
X12600D01*
X18000D02*
X19200D01*
X19900D02*
X25700D01*
X4800Y242000D02*
X12600D01*
X18000D02*
X19200D01*
X19900D02*
X25700D01*
X4900Y241900D02*
X12600D01*
X17900D02*
X19200D01*
X19900D02*
X25700D01*
X4900Y241800D02*
X12700D01*
X17900D02*
X19100D01*
X19800D02*
X25700D01*
X4900Y241700D02*
X12700D01*
X17900D02*
X19100D01*
X19800D02*
X25700D01*
X4900Y241600D02*
X12700D01*
X17900D02*
X19100D01*
X19800D02*
X25700D01*
X5000Y241500D02*
X12800D01*
X17800D02*
X19100D01*
X19700D02*
X25700D01*
X5000Y241400D02*
X12800D01*
X17800D02*
X19000D01*
X19700D02*
X25700D01*
X5000Y241300D02*
X12800D01*
X17800D02*
X19000D01*
X19700D02*
X25700D01*
X5100Y241200D02*
X12800D01*
X17700D02*
X19000D01*
X19700D02*
X25700D01*
X5100Y241100D02*
X12900D01*
X17700D02*
X18900D01*
X19600D02*
X25700D01*
X5100Y241000D02*
X12900D01*
X17700D02*
X18900D01*
X19600D02*
X25700D01*
X5200Y240900D02*
X12900D01*
X17700D02*
X18900D01*
X19600D02*
X25700D01*
X5200Y240800D02*
X13000D01*
X17600D02*
X18900D01*
X19600D02*
X25700D01*
X5200Y240700D02*
X13000D01*
X17600D02*
X18800D01*
X19500D02*
X25700D01*
X5200Y240600D02*
X13000D01*
X17600D02*
X18800D01*
X19500D02*
X25700D01*
X5300Y240500D02*
X13000D01*
X17600D02*
X18800D01*
X19500D02*
X25700D01*
X5300Y240400D02*
X13100D01*
X17500D02*
X18800D01*
X19400D02*
X25700D01*
X5300Y240300D02*
X13100D01*
X17500D02*
X18700D01*
X19400D02*
X25700D01*
X5400Y240200D02*
X13100D01*
X17500D02*
X18700D01*
X19400D02*
X25700D01*
X5400Y240100D02*
X13200D01*
X17500D02*
X18700D01*
X19400D02*
X25700D01*
X5400Y240000D02*
X13200D01*
X17400D02*
X18700D01*
X19300D02*
X25700D01*
X5500Y239900D02*
X13200D01*
X17400D02*
X18600D01*
X19300D02*
X25700D01*
X5500Y239800D02*
X13200D01*
X17400D02*
X18600D01*
X19300D02*
X25700D01*
X5500Y239700D02*
X13300D01*
X17300D02*
X18600D01*
X19300D02*
X25700D01*
X5500Y239600D02*
X13300D01*
X17300D02*
X18500D01*
X19200D02*
X25700D01*
X5600Y239500D02*
X13300D01*
X17300D02*
X18500D01*
X19200D02*
X25700D01*
X5600Y239400D02*
X13400D01*
X17300D02*
X18500D01*
X19200D02*
X25700D01*
X5600Y239300D02*
X13400D01*
X17200D02*
X18500D01*
X19100D02*
X25700D01*
X5700Y239200D02*
X13400D01*
X17200D02*
X18400D01*
X19100D02*
X25700D01*
X5700Y239100D02*
X13400D01*
X17200D02*
X18400D01*
X19100D02*
X25700D01*
X5700Y239000D02*
X13500D01*
X17200D02*
X18400D01*
X19100D02*
X25700D01*
X5800Y238900D02*
X13500D01*
X17100D02*
X18400D01*
X19000D02*
X25700D01*
X4500Y238800D02*
X4600D01*
X5800D02*
X13500D01*
X17100D02*
X18300D01*
X19000D02*
X25700D01*
X4500Y238700D02*
X4600D01*
X5800D02*
X13600D01*
X17100D02*
X18300D01*
X19000D02*
X25700D01*
X4500Y238600D02*
X4600D01*
X5800D02*
X13600D01*
X17100D02*
X18300D01*
X19000D02*
X25700D01*
X4500Y238500D02*
X4700D01*
X5900D02*
X13600D01*
X17000D02*
X18200D01*
X18900D02*
X25700D01*
X4500Y238400D02*
X4700D01*
X5900D02*
X13600D01*
X17000D02*
X18200D01*
X18900D02*
X25700D01*
X4500Y238300D02*
X4700D01*
X5900D02*
X13700D01*
X17000D02*
X18200D01*
X18900D02*
X25700D01*
X4500Y238200D02*
X4800D01*
X6000D02*
X13700D01*
X16900D02*
X18200D01*
X18800D02*
X25700D01*
X4500Y238100D02*
X4800D01*
X6000D02*
X13700D01*
X16900D02*
X18100D01*
X18800D02*
X25700D01*
X4500Y238000D02*
X4800D01*
X6000D02*
X13800D01*
X16900D02*
X18100D01*
X18800D02*
X25700D01*
X4500Y237900D02*
X4900D01*
X6100D02*
X13800D01*
X16900D02*
X18100D01*
X18800D02*
X25700D01*
X4500Y237800D02*
X4900D01*
X6100D02*
X13800D01*
X16800D02*
X18100D01*
X18700D02*
X25700D01*
X4500Y237700D02*
X4900D01*
X6100D02*
X13800D01*
X16800D02*
X18000D01*
X18700D02*
X25700D01*
X4500Y237600D02*
X5000D01*
X6100D02*
X13900D01*
X16800D02*
X18000D01*
X18700D02*
X25700D01*
X4500Y237500D02*
X5000D01*
X6200D02*
X13900D01*
X16800D02*
X18000D01*
X18700D02*
X25700D01*
X4500Y237400D02*
X5000D01*
X6200D02*
X13900D01*
X16700D02*
X17900D01*
X18600D02*
X25700D01*
X4500Y237300D02*
X5100D01*
X6200D02*
X14000D01*
X16700D02*
X17900D01*
X18600D02*
X25700D01*
X4500Y237200D02*
X5100D01*
X6300D02*
X14000D01*
X16700D02*
X17900D01*
X18600D02*
X25700D01*
X4500Y237100D02*
X5100D01*
X6300D02*
X14000D01*
X16600D02*
X17900D01*
X18600D02*
X25700D01*
X4500Y237000D02*
X5200D01*
X6300D02*
X14000D01*
X16600D02*
X17800D01*
X18500D02*
X25700D01*
X4500Y236900D02*
X5200D01*
X6400D02*
X14100D01*
X16600D02*
X17800D01*
X18500D02*
X25700D01*
X4500Y236800D02*
X5200D01*
X6400D02*
X14100D01*
X16600D02*
X17800D01*
X18500D02*
X25700D01*
X4500Y236700D02*
X5300D01*
X6400D02*
X14100D01*
X16500D02*
X17800D01*
X18400D02*
X25700D01*
X4500Y236600D02*
X5300D01*
X6400D02*
X14200D01*
X16500D02*
X17700D01*
X18400D02*
X25700D01*
X4500Y236500D02*
X5300D01*
X6500D02*
X14200D01*
X16500D02*
X17700D01*
X18400D02*
X25700D01*
X4500Y236400D02*
X5400D01*
X6500D02*
X14200D01*
X16500D02*
X17700D01*
X18400D02*
X25700D01*
X4500Y236300D02*
X5400D01*
X6500D02*
X14200D01*
X16400D02*
X17700D01*
X18300D02*
X25700D01*
X4500Y236200D02*
X5400D01*
X6600D02*
X14300D01*
X16400D02*
X17600D01*
X18300D02*
X25700D01*
X4500Y236100D02*
X5500D01*
X6600D02*
X14300D01*
X16400D02*
X17600D01*
X18300D02*
X25700D01*
X4500Y236000D02*
X5500D01*
X6600D02*
X14300D01*
X16400D02*
X17600D01*
X18300D02*
X25700D01*
X4500Y235900D02*
X5600D01*
X6700D02*
X14400D01*
X16500D02*
X17500D01*
X18200D02*
X25700D01*
X4500Y235800D02*
X5600D01*
X6700D02*
X14400D01*
X16500D02*
X17500D01*
X18200D02*
X25700D01*
X4500Y235700D02*
X5600D01*
X6700D02*
X14400D01*
X16500D02*
X17500D01*
X18200D02*
X25700D01*
X4500Y235600D02*
X5700D01*
X6700D02*
X14400D01*
X16500D02*
X17500D01*
X18100D02*
X25700D01*
X4500Y235500D02*
X5700D01*
X6800D02*
X14500D01*
X16600D02*
X17400D01*
X18100D02*
X25700D01*
X4500Y235400D02*
X5700D01*
X6800D02*
X14500D01*
X16600D02*
X17400D01*
X18100D02*
X25700D01*
X4500Y235300D02*
X5800D01*
X6800D02*
X14500D01*
X16600D02*
X17400D01*
X18100D02*
X25700D01*
X4500Y235200D02*
X5800D01*
X6900D02*
X14600D01*
X16700D02*
X17400D01*
X18000D02*
X25700D01*
X4500Y235100D02*
X5800D01*
X6900D02*
X14600D01*
X16700D02*
X17300D01*
X18000D02*
X25700D01*
X4500Y235000D02*
X5900D01*
X6900D02*
X14600D01*
X16700D02*
X17300D01*
X18000D02*
X25700D01*
X4500Y234900D02*
X5900D01*
X7000D02*
X14600D01*
X16700D02*
X17300D01*
X18000D02*
X25700D01*
X4500Y234800D02*
X5900D01*
X7000D02*
X14700D01*
X16800D02*
X17200D01*
X18000D02*
X25700D01*
X4500Y234700D02*
X6000D01*
X7000D02*
X14700D01*
X16800D02*
X17200D01*
X18000D02*
X25700D01*
X4500Y234600D02*
X6000D01*
X7000D02*
X14700D01*
X16800D02*
X17200D01*
X18000D02*
X25700D01*
X4500Y234500D02*
X6000D01*
X7100D02*
X14800D01*
X16800D02*
X17200D01*
X18000D02*
X25700D01*
X4500Y234400D02*
X6000D01*
X7100D02*
X14800D01*
X16900D02*
X17100D01*
X18000D02*
X25700D01*
X4500Y234300D02*
X6000D01*
X7100D02*
X14800D01*
X16900D02*
X17100D01*
X18000D02*
X25700D01*
X4500Y234200D02*
X6000D01*
X7200D02*
X14800D01*
X16900D02*
X17100D01*
X18000D02*
X25700D01*
X4500Y234100D02*
X6000D01*
X7200D02*
X14900D01*
X16900D02*
X17100D01*
X18000D02*
X25700D01*
X4500Y234000D02*
X6000D01*
X7200D02*
X14900D01*
X18000D02*
X25700D01*
X4500Y233900D02*
X6000D01*
X7300D02*
X14900D01*
X18000D02*
X25700D01*
X4500Y233800D02*
X6000D01*
X7300D02*
X15000D01*
X18000D02*
X25700D01*
X4500Y233700D02*
X6000D01*
X7300D02*
X15000D01*
X18000D02*
X25700D01*
X4500Y233600D02*
X6000D01*
X7300D02*
X15000D01*
X18000D02*
X25700D01*
X4500Y233500D02*
X6000D01*
X7400D02*
X15000D01*
X18000D02*
X25700D01*
X4500Y233400D02*
X6000D01*
X7400D02*
X15100D01*
X18000D02*
X25700D01*
X4500Y233300D02*
X6000D01*
X7400D02*
X15100D01*
X18000D02*
X25700D01*
X4500Y233200D02*
X6000D01*
X7500D02*
X15100D01*
X18000D02*
X25700D01*
X4500Y233100D02*
X6000D01*
X7500D02*
X15200D01*
X18000D02*
X25700D01*
X4500Y233000D02*
X6000D01*
X7500D02*
X15200D01*
X18000D02*
X25700D01*
X4500Y232900D02*
X6000D01*
X7600D02*
X15200D01*
X18000D02*
X25700D01*
X4500Y232800D02*
X6000D01*
X7600D02*
X15200D01*
X18000D02*
X25700D01*
X4500Y232700D02*
X6000D01*
X7600D02*
X15300D01*
X18000D02*
X25700D01*
X4500Y232600D02*
X6000D01*
X7600D02*
X15300D01*
X18000D02*
X25700D01*
X4500Y232500D02*
X6000D01*
X7700D02*
X15300D01*
X18000D02*
X25700D01*
X4500Y232400D02*
X6000D01*
X7700D02*
X15400D01*
X18000D02*
X25700D01*
X4500Y232300D02*
X6000D01*
X7700D02*
X15400D01*
X18000D02*
X25700D01*
X4500Y232200D02*
X6000D01*
X7800D02*
X15400D01*
X18000D02*
X25700D01*
X4500Y232100D02*
X6000D01*
X7800D02*
X15400D01*
X18000D02*
X25700D01*
X4500Y232000D02*
X6000D01*
X7800D02*
X15500D01*
X18000D02*
X25700D01*
X4500Y231900D02*
X6000D01*
X7900D02*
X15500D01*
X18000D02*
X25700D01*
X4500Y231800D02*
X6000D01*
X7900D02*
X15500D01*
X18000D02*
X25700D01*
X4500Y231700D02*
X6000D01*
X7900D02*
X15600D01*
X18000D02*
X25700D01*
X4500Y231600D02*
X6000D01*
X7900D02*
X15600D01*
X18000D02*
X25700D01*
X4500Y231500D02*
X6000D01*
X8000D02*
X15600D01*
X18000D02*
X25700D01*
X4500Y231400D02*
X6000D01*
X8000D02*
X15700D01*
X18000D02*
X25700D01*
X4500Y231300D02*
X6000D01*
X8000D02*
X15700D01*
X18000D02*
X25700D01*
X4500Y231200D02*
X6000D01*
X8100D02*
X15700D01*
X18000D02*
X25700D01*
X4500Y231100D02*
X6000D01*
X8100D02*
X15700D01*
X18000D02*
X25700D01*
X4500Y231000D02*
X6000D01*
X8100D02*
X15800D01*
X18000D02*
X25700D01*
X4500Y230900D02*
X6000D01*
X8200D02*
X15800D01*
X18000D02*
X25700D01*
X4500Y230800D02*
X6000D01*
X8200D02*
X15800D01*
X18000D02*
X25700D01*
X4500Y230700D02*
X6000D01*
X8200D02*
X15900D01*
X18000D02*
X25700D01*
X4500Y230600D02*
X6000D01*
X8200D02*
X15900D01*
X18000D02*
X25700D01*
X4500Y230500D02*
X6000D01*
X8300D02*
X15900D01*
X18000D02*
X25700D01*
X4500Y230400D02*
X6000D01*
X8300D02*
X15900D01*
X18000D02*
X25700D01*
X4500Y230300D02*
X6000D01*
X8300D02*
X16000D01*
X18000D02*
X25700D01*
X4500Y230200D02*
X6000D01*
X8400D02*
X16000D01*
X18000D02*
X25700D01*
X4500Y230100D02*
X6000D01*
X8400D02*
X15900D01*
X18000D02*
X25700D01*
X4500Y230000D02*
X6000D01*
X8400D02*
X15900D01*
X18000D02*
X25700D01*
X4500Y229900D02*
X6000D01*
X8500D02*
X15900D01*
X18000D02*
X25700D01*
X4500Y229800D02*
X6000D01*
X8500D02*
X15800D01*
X18000D02*
X25700D01*
X4500Y229700D02*
X6000D01*
X8500D02*
X15800D01*
X18000D02*
X25700D01*
X4500Y229600D02*
X6000D01*
X8500D02*
X15800D01*
X18000D02*
X25700D01*
X4500Y229500D02*
X6000D01*
X8600D02*
X15800D01*
X18000D02*
X25700D01*
X4500Y229400D02*
X6000D01*
X8600D02*
X15700D01*
X18000D02*
X25700D01*
X4500Y229300D02*
X6000D01*
X8600D02*
X15700D01*
X18000D02*
X25700D01*
X4500Y229200D02*
X6000D01*
X8700D02*
X15700D01*
X18000D02*
X25700D01*
X4500Y229100D02*
X6000D01*
X8700D02*
X15700D01*
X18000D02*
X25700D01*
X4500Y229000D02*
X6000D01*
X8700D02*
X15600D01*
X18000D02*
X25700D01*
X4500Y228900D02*
X6000D01*
X8700D02*
X15600D01*
X18000D02*
X25700D01*
X4400Y228800D02*
X6000D01*
X8800D02*
X15600D01*
X18000D02*
X25700D01*
X4400Y228700D02*
X6000D01*
X8800D02*
X15500D01*
X18000D02*
X25700D01*
X4400Y228600D02*
X6000D01*
X8800D02*
X15500D01*
X18000D02*
X25700D01*
X4400Y228500D02*
X6100D01*
X8900D02*
X15500D01*
X18000D02*
X25700D01*
X4400Y228400D02*
X6100D01*
X8900D02*
X15500D01*
X18000D02*
X25700D01*
X4400Y228300D02*
X6100D01*
X8900D02*
X15400D01*
X18000D02*
X25700D01*
X4300Y228200D02*
X6100D01*
X9000D02*
X15400D01*
X18000D02*
X25700D01*
X4300Y228100D02*
X6100D01*
X9000D02*
X15400D01*
X18000D02*
X25700D01*
X4300Y228000D02*
X6200D01*
X9000D02*
X15400D01*
X18000D02*
X25700D01*
X4300Y227900D02*
X6200D01*
X9000D02*
X15300D01*
X18000D02*
X25700D01*
X4200Y227800D02*
X6200D01*
X9100D02*
X15300D01*
X18000D02*
X25700D01*
X4200Y227700D02*
X6200D01*
X9100D02*
X15300D01*
X18000D02*
X25700D01*
X4200Y227600D02*
X6300D01*
X9100D02*
X15200D01*
X18000D02*
X25700D01*
X4100Y227500D02*
X6300D01*
X9200D02*
X15200D01*
X18000D02*
X25700D01*
X4100Y227400D02*
X6300D01*
X9200D02*
X15200D01*
X18000D02*
X25700D01*
X4100Y227300D02*
X6400D01*
X9200D02*
X15200D01*
X18000D02*
X25700D01*
X4000Y227200D02*
X6400D01*
X9300D02*
X15100D01*
X18000D02*
X25700D01*
X4000Y227100D02*
X6500D01*
X9300D02*
X15100D01*
X18000D02*
X25700D01*
X3900Y227000D02*
X6500D01*
X9300D02*
X15100D01*
X18000D02*
X25700D01*
X3900Y226900D02*
X6600D01*
X9300D02*
X15100D01*
X18000D02*
X25700D01*
X3800Y226800D02*
X6600D01*
X9400D02*
X15000D01*
X18000D02*
X25700D01*
X3800Y226700D02*
X6700D01*
X9400D02*
X15000D01*
X18000D02*
X25700D01*
X3700Y226600D02*
X6700D01*
X9400D02*
X15000D01*
X18000D02*
X25700D01*
X3700Y226500D02*
X6800D01*
X9500D02*
X14900D01*
X18000D02*
X25700D01*
X3600Y226400D02*
X6900D01*
X9500D02*
X14900D01*
X18000D02*
X25800D01*
X3500Y226300D02*
X6900D01*
X9500D02*
X14900D01*
X17900D02*
X25800D01*
X3400Y226200D02*
X7000D01*
X9600D02*
X14900D01*
X17900D02*
X25900D01*
X3300Y226100D02*
X7100D01*
X9600D02*
X14800D01*
X17800D02*
X25900D01*
X3200Y226000D02*
X7200D01*
X9600D02*
X14800D01*
X17700D02*
X26000D01*
X3100Y225900D02*
X7400D01*
X9600D02*
X14800D01*
X17600D02*
X26200D01*
X2900Y225800D02*
X7500D01*
X9700D02*
X14800D01*
X17400D02*
X26300D01*
X2800Y225700D02*
X7700D01*
X9700D02*
X14700D01*
X17200D02*
X26600D01*
X2600Y225600D02*
X7800D01*
X9700D02*
X14700D01*
X16900D02*
X26900D01*
X2400Y225500D02*
X8000D01*
X9800D02*
X14700D01*
X16600D02*
X27100D01*
X2200Y225400D02*
X8200D01*
X9800D02*
X14600D01*
X16400D02*
X27300D01*
X2100Y225300D02*
X8400D01*
X9800D02*
X14600D01*
X16300D02*
X27400D01*
X2000Y225200D02*
X8500D01*
X9900D02*
X14600D01*
X16300D02*
X27500D01*
X1900Y225100D02*
X8600D01*
X9900D02*
X14600D01*
X16200D02*
X27500D01*
X1900Y225000D02*
X8600D01*
X9900D02*
X14500D01*
X16200D02*
X27500D01*
X1800Y224900D02*
X8600D01*
X9900D02*
X14500D01*
X16200D02*
X27500D01*
X1800Y224800D02*
X8600D01*
X10000D02*
X14500D01*
X16200D02*
X27500D01*
X1800Y224700D02*
X8600D01*
X10000D02*
X14500D01*
X16200D02*
X27500D01*
X1900Y224600D02*
X8600D01*
X10000D02*
X14400D01*
X16200D02*
X27500D01*
X1900Y224500D02*
X8500D01*
X10100D02*
X14400D01*
X16300D02*
X27400D01*
X2000Y224400D02*
X8500D01*
X10100D02*
X14400D01*
X16400D02*
X27400D01*
X2100Y224300D02*
X8400D01*
X16500D02*
X27300D01*
X2300Y224200D02*
X8200D01*
X16600D02*
X27100D01*
X2600Y224100D02*
X7800D01*
X16900D02*
X26800D01*
D18*
X8700Y217999D02*
Y216000D01*
X9699Y215000D01*
X10699Y216000D01*
Y217999D01*
X11699Y216999D02*
Y215000D01*
Y216000D01*
X12199Y216499D01*
X12698Y216999D01*
X13198D01*
X14698Y215000D02*
X16197D01*
X16697Y215500D01*
X16197Y216000D01*
X15198D01*
X14698Y216499D01*
X15198Y216999D01*
X16697D01*
X17697Y215000D02*
Y217999D01*
Y216000D02*
X19196Y216999D01*
X17697Y216000D02*
X19196Y215000D01*
X21196Y216999D02*
X22195D01*
X22695Y216499D01*
Y215000D01*
X21196D01*
X20696Y215500D01*
X21196Y216000D01*
X22695D01*
X5701Y212999D02*
X6200Y213499D01*
X7200D01*
X7700Y212999D01*
Y211000D01*
X7200Y210500D01*
X6200D01*
X5701Y211000D01*
Y212999D01*
X8700Y213499D02*
X10699D01*
Y212999D01*
X8700Y211000D01*
Y210500D01*
X11699D02*
X13698Y212499D01*
X16697Y210500D02*
X14698D01*
X16697Y212499D01*
Y212999D01*
X16197Y213499D01*
X15198D01*
X14698Y212999D01*
X17697D02*
X18197Y213499D01*
X19196D01*
X19696Y212999D01*
Y211000D01*
X19196Y210500D01*
X18197D01*
X17697Y211000D01*
Y212999D01*
X22695Y210500D02*
X20696D01*
X22695Y212499D01*
Y212999D01*
X22195Y213499D01*
X21196D01*
X20696Y212999D01*
X23695D02*
X24195Y213499D01*
X25194D01*
X25694Y212999D01*
Y211000D01*
X25194Y210500D01*
X24195D01*
X23695Y211000D01*
Y212999D01*
X7700Y219600D02*
Y222599D01*
X8700Y221599D01*
X9699Y222599D01*
Y219600D01*
X11199Y221599D02*
X12199D01*
X12698Y221099D01*
Y219600D01*
X11199D01*
X10699Y220100D01*
X11199Y220600D01*
X12698D01*
X13698Y221599D02*
Y219600D01*
Y220600D01*
X14198Y221099D01*
X14698Y221599D01*
X15198D01*
X17197Y222099D02*
Y221599D01*
X16697D01*
X17697D01*
X17197D01*
Y220100D01*
X17697Y219600D01*
X19196D02*
X20196D01*
X19696D01*
Y221599D01*
X19196D01*
X21696Y219600D02*
Y221599D01*
X23195D01*
X23695Y221099D01*
Y219600D01*
D20*
X301181Y64449D02*
Y64567D01*
Y62721D02*
Y64449D01*
X364173D02*
Y64567D01*
Y62721D02*
Y64449D01*
X455118D02*
Y64567D01*
Y62721D02*
Y64449D01*
X464804Y279490D02*
X465629Y280315D01*
X464804Y277596D02*
Y279490D01*
X463070Y275862D02*
X464804Y277596D01*
X463070Y274016D02*
Y275862D01*
X459133Y276022D02*
Y279459D01*
X453384Y60986D02*
X455118Y62721D01*
X453384Y59092D02*
Y60986D01*
X452559Y58268D02*
X453384Y59092D01*
X459055Y59124D02*
Y62561D01*
X362439Y60986D02*
X364173Y62721D01*
X362439Y59092D02*
Y60986D01*
X361614Y58268D02*
X362439Y59092D01*
X368110Y59124D02*
Y62561D01*
X299447Y60986D02*
X301181Y62721D01*
X299447Y59092D02*
Y60986D01*
X298622Y58268D02*
X299447Y59092D01*
X305118Y59124D02*
Y62561D01*
X238189Y62721D02*
Y64567D01*
X236455Y60986D02*
X238189Y62721D01*
X236455Y59092D02*
Y60986D01*
X235630Y58268D02*
X236455Y59092D01*
X242126Y59124D02*
Y62561D01*
X157480Y62721D02*
Y64567D01*
X155746Y60986D02*
X157480Y62721D01*
X155746Y59092D02*
Y60986D01*
X154921Y58268D02*
X155746Y59092D01*
X161417Y59124D02*
Y62561D01*
X106299Y62721D02*
Y64567D01*
X104565Y60986D02*
X106299Y62721D01*
X104565Y59092D02*
Y60986D01*
X103740Y58268D02*
X104565Y59092D01*
X110236Y59124D02*
Y62561D01*
X59055Y59124D02*
Y62561D01*
X52559Y58268D02*
X53384Y59092D01*
Y60986D01*
X55118Y62721D01*
Y64567D01*
D22*
X94400Y184565D02*
X94794D01*
X96307Y186078D01*
X98319D01*
X98947Y186706D01*
Y187100D01*
X93772Y185193D02*
X94400Y184565D01*
X92166Y185193D02*
X93772D01*
X90456Y186903D02*
X92166Y185193D01*
X90456Y186903D02*
Y187100D01*
X94488Y128000D02*
X94653Y128165D01*
Y128496D01*
X96239Y130082D01*
Y132100D01*
X462205Y59331D02*
X471260D01*
X371260D02*
X380315D01*
X308268D02*
X317323D01*
X245276Y59449D02*
X254331D01*
X113386Y59449D02*
X122441D01*
X62205D02*
X71260D01*
X454800Y269077D02*
Y275900D01*
Y269077D02*
X458523Y265354D01*
X459400Y266231D01*
X459055Y72835D02*
X459665D01*
X463319Y62800D02*
Y69181D01*
X368110Y72716D02*
X368721D01*
X309382Y62800D02*
Y69181D01*
X305118Y72835D02*
X305728D01*
X242126D02*
X242736D01*
X372374Y62682D02*
Y69063D01*
X246390Y62800D02*
Y69181D01*
X161417Y72835D02*
X162028D01*
X110236Y73228D02*
X110846D01*
X114500Y62800D02*
Y69575D01*
X59055Y72835D02*
X59665D01*
X165681Y62800D02*
Y69181D01*
X63319Y62800D02*
Y69181D01*
X59665Y72835D02*
X63319Y69181D01*
X459665Y72835D02*
X463319Y69181D01*
X368721Y72716D02*
X372374Y69063D01*
X305728Y72835D02*
X309382Y69181D01*
X242736Y72835D02*
X246390Y69181D01*
X162028Y72835D02*
X165681Y69181D01*
X110846Y73228D02*
X114500Y69575D01*
X9402Y101752D02*
Y107480D01*
X165044Y328600D02*
X166600D01*
X164000Y327556D02*
X165044Y328600D01*
X164000Y324000D02*
Y327556D01*
X163900Y324100D02*
X164000Y324000D01*
X457700Y266700D02*
X458931D01*
X459400Y266231D01*
X134715Y306766D02*
Y323297D01*
X138976Y327559D01*
X133449Y305500D02*
X134715Y306766D01*
X121653Y308858D02*
X125012Y305500D01*
X121653Y308858D02*
Y309055D01*
X125012Y305500D02*
X133449D01*
X446928Y279134D02*
X455983D01*
X457164Y277953D01*
Y274016D02*
Y277953D01*
X112205Y60630D02*
Y64567D01*
Y60630D02*
X113386Y59449D01*
X163386Y60630D02*
Y64567D01*
Y60630D02*
X164567Y59449D01*
X173622D01*
X244094Y60630D02*
Y64567D01*
Y60630D02*
X245276Y59449D01*
X307087Y60512D02*
Y64449D01*
Y60512D02*
X308268Y59331D01*
X370079Y60512D02*
Y64449D01*
Y60512D02*
X371260Y59331D01*
X461024Y60512D02*
Y64449D01*
Y60512D02*
X462205Y59331D01*
X61024Y60630D02*
X62205Y59449D01*
X459261Y279459D02*
X460117Y280315D01*
X458071Y58268D02*
X458927Y59124D01*
X367126Y58268D02*
X367982Y59124D01*
X304134Y58268D02*
X304990Y59124D01*
X241142Y58268D02*
X241998Y59124D01*
X160433Y58268D02*
X161289Y59124D01*
X109252Y58268D02*
X110108Y59124D01*
X58071Y58268D02*
X58927Y59124D01*
X61024Y60630D02*
Y64567D01*
D23*
X440551Y280315D02*
D03*
X446063D02*
D03*
X477559Y59055D02*
D03*
X472047D02*
D03*
X386614D02*
D03*
X381102D02*
D03*
X323622D02*
D03*
X318110D02*
D03*
X260630D02*
D03*
X255118D02*
D03*
X179921Y59449D02*
D03*
X174409D02*
D03*
X128740Y59449D02*
D03*
X123228D02*
D03*
X77559D02*
D03*
X72047D02*
D03*
X90456Y187100D02*
D03*
X84944D02*
D03*
X74744Y182300D02*
D03*
X80256D02*
D03*
X70056Y225400D02*
D03*
X64544D02*
D03*
X49444D02*
D03*
X54956D02*
D03*
X39244D02*
D03*
X44756D02*
D03*
X99844Y164253D02*
D03*
X105356D02*
D03*
X452559Y58268D02*
D03*
X458071D02*
D03*
X465629Y280315D02*
D03*
X460117D02*
D03*
X667638Y55024D02*
D03*
X662126D02*
D03*
X737638D02*
D03*
X732126D02*
D03*
X37402Y107480D02*
D03*
X31890D02*
D03*
X9402Y107480D02*
D03*
X14913D02*
D03*
X361614Y58268D02*
D03*
X367126D02*
D03*
X235630D02*
D03*
X241142D02*
D03*
X154921D02*
D03*
X160433D02*
D03*
X103740D02*
D03*
X109252D02*
D03*
X52559D02*
D03*
X58071D02*
D03*
X298622D02*
D03*
X304134D02*
D03*
X121653Y309055D02*
D03*
X127165D02*
D03*
D24*
X41339Y309055D02*
D03*
Y304055D02*
D03*
Y299055D02*
D03*
Y294055D02*
D03*
Y289055D02*
D03*
Y284055D02*
D03*
Y279055D02*
D03*
Y274055D02*
D03*
Y269055D02*
D03*
Y264055D02*
D03*
Y259055D02*
D03*
Y254055D02*
D03*
Y249055D02*
D03*
Y244055D02*
D03*
X108268D02*
D03*
Y249055D02*
D03*
Y254055D02*
D03*
Y259055D02*
D03*
Y264055D02*
D03*
Y269055D02*
D03*
Y274055D02*
D03*
Y279055D02*
D03*
Y284055D02*
D03*
Y289055D02*
D03*
Y294055D02*
D03*
Y299055D02*
D03*
Y304055D02*
D03*
Y309055D02*
D03*
D25*
X52303Y240118D02*
D03*
X57303D02*
D03*
X62303D02*
D03*
X67303D02*
D03*
X72303D02*
D03*
X77303D02*
D03*
X82303D02*
D03*
X87303D02*
D03*
X92303D02*
D03*
X97303D02*
D03*
D26*
X63642Y286752D02*
D03*
X70866D02*
D03*
X78091D02*
D03*
X63642Y279528D02*
D03*
X70866D02*
D03*
X78091D02*
D03*
X63642Y272303D02*
D03*
X70866D02*
D03*
X78091D02*
D03*
D27*
X15400Y176700D02*
D03*
X18400D02*
D03*
X182000Y241340D02*
D03*
Y244340D02*
D03*
Y275836D02*
D03*
Y272836D02*
D03*
X172000Y275836D02*
D03*
Y272836D02*
D03*
Y241340D02*
D03*
Y244340D02*
D03*
X240083Y241693D02*
D03*
X237083D02*
D03*
X246532D02*
D03*
X249532D02*
D03*
X127700Y244094D02*
D03*
X124700D02*
D03*
D28*
X94400Y158347D02*
D03*
Y164253D02*
D03*
Y178660D02*
D03*
Y184565D02*
D03*
Y174565D02*
D03*
Y168660D02*
D03*
X449213Y70354D02*
D03*
Y64449D02*
D03*
X468898Y267913D02*
D03*
Y273819D02*
D03*
X698952Y263673D02*
D03*
Y269579D02*
D03*
X768952Y263673D02*
D03*
Y269579D02*
D03*
X37402Y76752D02*
D03*
Y70846D02*
D03*
Y87657D02*
D03*
Y81752D02*
D03*
X358268Y70354D02*
D03*
Y64449D02*
D03*
X232283Y70472D02*
D03*
Y64567D02*
D03*
X151575Y70473D02*
D03*
Y64567D02*
D03*
X100394Y70472D02*
D03*
Y64567D02*
D03*
X49213Y70472D02*
D03*
Y64567D02*
D03*
X295276Y70354D02*
D03*
Y64449D02*
D03*
D29*
X104853Y187100D02*
D03*
X98947D02*
D03*
X152553Y222200D02*
D03*
X146647D02*
D03*
X134253Y217400D02*
D03*
X128347D02*
D03*
X152653D02*
D03*
X146747D02*
D03*
X141047Y277362D02*
D03*
X146953D02*
D03*
X599803Y164961D02*
D03*
X605709D02*
D03*
X791535Y247638D02*
D03*
X797441D02*
D03*
X797441Y252756D02*
D03*
X791535D02*
D03*
X687520Y55024D02*
D03*
X681614D02*
D03*
X630000Y136429D02*
D03*
X635906D02*
D03*
X635953Y131000D02*
D03*
X630047D02*
D03*
X695999Y249606D02*
D03*
X701905D02*
D03*
X757520Y55024D02*
D03*
X751614D02*
D03*
X783661Y136429D02*
D03*
X789567D02*
D03*
X789567Y130929D02*
D03*
X783661D02*
D03*
X765999Y249606D02*
D03*
X771905D02*
D03*
X605709Y170079D02*
D03*
X599803D02*
D03*
X453740Y183563D02*
D03*
X459646D02*
D03*
X453740Y173563D02*
D03*
X459646D02*
D03*
X453740Y163563D02*
D03*
X459646D02*
D03*
X453740Y153563D02*
D03*
X459646D02*
D03*
X103150Y232677D02*
D03*
X97244D02*
D03*
X137992Y309055D02*
D03*
X132087D02*
D03*
D30*
X59644Y230912D02*
D03*
Y225400D02*
D03*
X14961Y284252D02*
D03*
Y278740D02*
D03*
X14961Y258661D02*
D03*
Y264173D02*
D03*
D31*
X69644Y218602D02*
D03*
X64644D02*
D03*
X59644D02*
D03*
X54644D02*
D03*
X49644D02*
D03*
X44644D02*
D03*
X39644D02*
D03*
X34644D02*
D03*
Y181398D02*
D03*
X39644D02*
D03*
X44644D02*
D03*
X49644D02*
D03*
X54644D02*
D03*
X59644D02*
D03*
X64644D02*
D03*
X69644D02*
D03*
D32*
X110700Y176614D02*
D03*
D33*
X119361Y180551D02*
D03*
Y178583D02*
D03*
Y176614D02*
D03*
Y174646D02*
D03*
Y172677D02*
D03*
X102039D02*
D03*
Y174646D02*
D03*
Y176614D02*
D03*
Y178583D02*
D03*
Y180551D02*
D03*
D34*
X193584Y224700D02*
D03*
X161300D02*
D03*
D35*
X135300Y227409D02*
D03*
D36*
X132347Y233117D02*
D03*
X134316D02*
D03*
X136284D02*
D03*
X138253D02*
D03*
Y221700D02*
D03*
X136284D02*
D03*
X134316D02*
D03*
X132347D02*
D03*
D37*
X141009Y230361D02*
D03*
Y228393D02*
D03*
Y226424D02*
D03*
Y224456D02*
D03*
X129591D02*
D03*
Y226424D02*
D03*
Y228393D02*
D03*
Y230361D02*
D03*
D38*
X291121Y108966D02*
D03*
X293680D02*
D03*
X296239D02*
D03*
X298798D02*
D03*
X301358D02*
D03*
X303917D02*
D03*
X306476D02*
D03*
X309035D02*
D03*
X311594D02*
D03*
X314153D02*
D03*
X316712D02*
D03*
X319271D02*
D03*
Y132100D02*
D03*
X316712D02*
D03*
X314153D02*
D03*
X311594D02*
D03*
X309035D02*
D03*
X306476D02*
D03*
X303917D02*
D03*
X301358D02*
D03*
X298798D02*
D03*
X296239D02*
D03*
X293680D02*
D03*
X291121D02*
D03*
X96239Y108966D02*
D03*
X98798D02*
D03*
X101357D02*
D03*
X103917D02*
D03*
X106476D02*
D03*
X109035D02*
D03*
X111594D02*
D03*
X114153D02*
D03*
X116712D02*
D03*
X119271D02*
D03*
X121830D02*
D03*
X124389D02*
D03*
Y132100D02*
D03*
X121830D02*
D03*
X119271D02*
D03*
X116712D02*
D03*
X114153D02*
D03*
X111594D02*
D03*
X109035D02*
D03*
X106476D02*
D03*
X103917D02*
D03*
X101357D02*
D03*
X98798D02*
D03*
X96239D02*
D03*
D39*
X305196Y120533D02*
D03*
X110314D02*
D03*
D40*
X226500Y131210D02*
D03*
X221500D02*
D03*
X216500D02*
D03*
X211500D02*
D03*
X206500D02*
D03*
X201500D02*
D03*
X196500D02*
D03*
X191500D02*
D03*
Y109856D02*
D03*
X196500D02*
D03*
X201500D02*
D03*
X206500D02*
D03*
X211500D02*
D03*
X216500D02*
D03*
X221500D02*
D03*
X226500D02*
D03*
D41*
X478740Y68386D02*
D03*
Y77835D02*
D03*
Y73110D02*
D03*
X470866Y68386D02*
D03*
Y77835D02*
D03*
Y73110D02*
D03*
X447244Y270079D02*
D03*
Y260630D02*
D03*
Y265354D02*
D03*
X439370Y270079D02*
D03*
Y260630D02*
D03*
Y265354D02*
D03*
X639370Y314961D02*
D03*
Y310236D02*
D03*
Y319685D02*
D03*
X709528Y314961D02*
D03*
Y310236D02*
D03*
Y319685D02*
D03*
X647244Y314961D02*
D03*
Y310236D02*
D03*
Y319685D02*
D03*
X717402Y314961D02*
D03*
Y310236D02*
D03*
Y319685D02*
D03*
X387795Y68386D02*
D03*
Y77835D02*
D03*
Y73110D02*
D03*
X379921Y68386D02*
D03*
Y77835D02*
D03*
Y73110D02*
D03*
X261811Y68504D02*
D03*
Y77953D02*
D03*
Y73228D02*
D03*
X253937Y68504D02*
D03*
Y77953D02*
D03*
Y73228D02*
D03*
X181102Y68504D02*
D03*
Y77953D02*
D03*
Y73228D02*
D03*
X173228Y68504D02*
D03*
Y77953D02*
D03*
Y73228D02*
D03*
X129921Y68504D02*
D03*
Y77953D02*
D03*
Y73228D02*
D03*
X122047Y68504D02*
D03*
Y77953D02*
D03*
Y73228D02*
D03*
X78740Y68504D02*
D03*
Y77953D02*
D03*
Y73228D02*
D03*
X70866Y68504D02*
D03*
Y77953D02*
D03*
Y73228D02*
D03*
X324803Y68386D02*
D03*
Y77835D02*
D03*
Y73110D02*
D03*
X316929Y68386D02*
D03*
Y77835D02*
D03*
Y73110D02*
D03*
D42*
X459055D02*
D03*
X459133Y265354D02*
D03*
X368110Y73110D02*
D03*
X242126Y73228D02*
D03*
X161417Y73228D02*
D03*
X110236Y73228D02*
D03*
X59055D02*
D03*
X305118Y73110D02*
D03*
D43*
X455118Y81772D02*
D03*
X457087D02*
D03*
X459055D02*
D03*
X461024D02*
D03*
X462992D02*
D03*
Y64449D02*
D03*
X461024D02*
D03*
X459055D02*
D03*
X457087D02*
D03*
X455118D02*
D03*
X463070Y256693D02*
D03*
X461101D02*
D03*
X459133D02*
D03*
X457164D02*
D03*
X455196D02*
D03*
Y274016D02*
D03*
X457164D02*
D03*
X459133D02*
D03*
X461101D02*
D03*
X463070D02*
D03*
X364173Y81772D02*
D03*
X366142D02*
D03*
X368110D02*
D03*
X370079D02*
D03*
X372047D02*
D03*
Y64449D02*
D03*
X370079D02*
D03*
X368110D02*
D03*
X366142D02*
D03*
X364173D02*
D03*
X238189Y81890D02*
D03*
X240158D02*
D03*
X242126D02*
D03*
X244094D02*
D03*
X246063D02*
D03*
Y64567D02*
D03*
X244094D02*
D03*
X242126D02*
D03*
X240158D02*
D03*
X238189D02*
D03*
X157480Y81890D02*
D03*
X159449D02*
D03*
X161417D02*
D03*
X163386D02*
D03*
X165354D02*
D03*
Y64567D02*
D03*
X163386D02*
D03*
X161417D02*
D03*
X159449D02*
D03*
X157480D02*
D03*
X106299Y81890D02*
D03*
X108268D02*
D03*
X110236D02*
D03*
X112205D02*
D03*
X114173D02*
D03*
Y64567D02*
D03*
X112205D02*
D03*
X110236D02*
D03*
X108268D02*
D03*
X106299D02*
D03*
X55118Y81890D02*
D03*
X57087D02*
D03*
X59055D02*
D03*
X61024D02*
D03*
X62992D02*
D03*
Y64567D02*
D03*
X61024D02*
D03*
X59055D02*
D03*
X57087D02*
D03*
X55118D02*
D03*
X301181Y81772D02*
D03*
X303150D02*
D03*
X305118D02*
D03*
X307087D02*
D03*
X309055D02*
D03*
Y64449D02*
D03*
X307087D02*
D03*
X305118D02*
D03*
X303150D02*
D03*
X301181D02*
D03*
D44*
X467520Y188563D02*
D03*
Y183563D02*
D03*
Y178563D02*
D03*
Y173563D02*
D03*
Y168563D02*
D03*
Y163563D02*
D03*
Y158563D02*
D03*
Y153563D02*
D03*
X493110D02*
D03*
Y158563D02*
D03*
Y163563D02*
D03*
Y168563D02*
D03*
Y173563D02*
D03*
Y178563D02*
D03*
Y183563D02*
D03*
Y188563D02*
D03*
D45*
X625197Y78216D02*
D03*
Y105776D02*
D03*
X794488Y77823D02*
D03*
Y105382D02*
D03*
D46*
X633071Y116083D02*
D03*
X629331Y124350D02*
D03*
X636811D02*
D03*
X786614Y115295D02*
D03*
X782874Y123563D02*
D03*
X790354D02*
D03*
X794488Y232874D02*
D03*
X790748Y241142D02*
D03*
X798228D02*
D03*
X602756Y150551D02*
D03*
X599016Y158819D02*
D03*
X606496D02*
D03*
D47*
X698952Y276626D02*
D03*
Y256626D02*
D03*
X768952Y276626D02*
D03*
Y256626D02*
D03*
D48*
X659952Y266626D02*
D03*
X729952D02*
D03*
D49*
X633090Y275000D02*
D03*
X628090D02*
D03*
X623091D02*
D03*
X618090D02*
D03*
Y236811D02*
D03*
X623091D02*
D03*
X628090D02*
D03*
X633090D02*
D03*
D50*
X309408Y219685D02*
D03*
X225197Y220079D02*
D03*
X361024Y219685D02*
D03*
X324565D02*
D03*
X294250D02*
D03*
X207480Y220079D02*
D03*
X242913Y219685D02*
D03*
X274016D02*
D03*
D51*
X370079Y276969D02*
D03*
X361024D02*
D03*
X351969D02*
D03*
D52*
X361024Y252165D02*
D03*
D53*
X252756Y273819D02*
D03*
X242913D02*
D03*
X233071D02*
D03*
Y252165D02*
D03*
X242913D02*
D03*
X252756D02*
D03*
D54*
X324565Y249803D02*
D03*
D55*
X315510Y276969D02*
D03*
X333620D02*
D03*
D56*
X303246Y276949D02*
D03*
X285254D02*
D03*
D57*
X294250Y251614D02*
D03*
D58*
X9402Y101752D02*
D03*
Y96752D02*
D03*
Y91752D02*
D03*
Y86752D02*
D03*
Y81752D02*
D03*
Y76752D02*
D03*
Y71752D02*
D03*
Y66752D02*
D03*
X30756D02*
D03*
Y71752D02*
D03*
Y76752D02*
D03*
Y81752D02*
D03*
Y86752D02*
D03*
Y91752D02*
D03*
Y96752D02*
D03*
Y101752D02*
D03*
D59*
X405807Y173031D02*
D03*
Y169095D02*
D03*
X413091D02*
D03*
Y173031D02*
D03*
D60*
X409449Y171063D02*
D03*
D61*
X526896Y143701D02*
D03*
X520203D02*
D03*
X578077D02*
D03*
X571384D02*
D03*
X520504Y196850D02*
D03*
X527197D02*
D03*
X571685D02*
D03*
X578378D02*
D03*
D62*
X103937Y227166D02*
D03*
X96851D02*
D03*
X157087Y315064D02*
D03*
X164173D02*
D03*
X181496Y314961D02*
D03*
X174409D02*
D03*
D63*
X14961Y274410D02*
D03*
Y268898D02*
D03*
D64*
X135300Y244958D02*
D03*
Y277242D02*
D03*
D65*
X174236Y324000D02*
D03*
X171677D02*
D03*
X169118D02*
D03*
X166559D02*
D03*
X164000D02*
D03*
D66*
X158095Y325417D02*
D03*
X180142D02*
D03*
D67*
X180585Y334472D02*
D03*
X157652D02*
D03*
D129*
X51531Y237181D02*
X52303Y237953D01*
Y240118D01*
X50828Y237181D02*
X51531D01*
X39244Y225597D02*
X50828Y237181D01*
X39244Y225400D02*
Y225597D01*
X70056Y225400D02*
Y225597D01*
X64741Y230912D02*
X70056Y225597D01*
X59644Y230912D02*
X64741D01*
X69644Y218602D02*
X69850Y218808D01*
Y225194D01*
X70056Y225400D01*
X64594Y218652D02*
X64644Y218602D01*
X64594Y218652D02*
Y225350D01*
X64544Y225400D02*
X64594Y225350D01*
X59644Y218602D02*
Y225400D01*
X59644Y225400D02*
X59644Y225400D01*
X54644Y218602D02*
X54800Y218758D01*
Y225244D01*
X54956Y225400D01*
X49544Y218702D02*
X49644Y218602D01*
X49544Y218702D02*
Y225300D01*
X49444Y225400D02*
X49544Y225300D01*
X44644Y218602D02*
Y225288D01*
X80256Y182497D02*
X84087Y186328D01*
X84944Y186903D02*
Y187100D01*
X84369Y186328D02*
X84944Y186903D01*
X84087Y186328D02*
X84369D01*
X80256Y182300D02*
Y182497D01*
X303958Y105142D02*
X304000Y105100D01*
X96100Y115200D02*
Y118700D01*
X98798Y121398D01*
X286400Y116800D02*
Y120400D01*
X129731Y121269D02*
X129800Y121200D01*
X129309Y121269D02*
X129731D01*
X121944Y128634D02*
X129309Y121269D01*
X121944Y128634D02*
Y131986D01*
X121830Y132100D02*
X121944Y131986D01*
X316600Y120600D02*
X316656Y120656D01*
Y132044D01*
X316712Y132100D01*
X103905Y136000D02*
X103911Y135994D01*
Y132106D02*
Y135994D01*
Y132106D02*
X103917Y132100D01*
X131102Y244094D02*
X134436D01*
X126500Y217400D02*
X128347D01*
X124500Y219400D02*
X126500Y217400D01*
X124500Y219400D02*
Y219800D01*
X128300Y244094D02*
X131102D01*
X127903D02*
X128300D01*
X127700D02*
X127903D01*
X134436D02*
X135300Y244958D01*
X286400Y120400D02*
X293680Y127680D01*
X304908Y92200D02*
X344893D01*
X296219Y100890D02*
X304908Y92200D01*
X296219Y100890D02*
Y108946D01*
X296239Y108966D01*
X126400Y96900D02*
X139600D01*
X111200Y92200D02*
X138200D01*
X293680Y101598D02*
Y108966D01*
X289782Y97700D02*
X293680Y101598D01*
X264100Y97700D02*
X289782D01*
X293680Y127680D02*
Y132100D01*
X119300Y104000D02*
Y108937D01*
Y104000D02*
X126400Y96900D01*
X218900Y153800D02*
X226500Y146200D01*
Y131210D02*
Y146200D01*
X109035Y105100D02*
Y108966D01*
X303917Y105142D02*
Y108924D01*
X116700Y136000D02*
X116706Y135994D01*
Y132106D02*
Y135994D01*
Y132106D02*
X116712Y132100D01*
X298787Y136000D02*
X298793Y135994D01*
Y132106D02*
Y135994D01*
X311582Y136000D02*
X311588Y135994D01*
Y132106D02*
Y135994D01*
Y132106D02*
X311594Y132100D01*
X298793Y132106D02*
X298798Y132100D01*
X321282Y96900D02*
X346293D01*
X346293Y96900D01*
X344893Y92200D02*
X344893Y92200D01*
X121800Y108936D02*
X121830Y108966D01*
X314153D02*
X314182Y108937D01*
X316682Y108936D02*
X316712Y108966D01*
X316682Y105400D02*
Y108936D01*
X314182Y104000D02*
Y108937D01*
Y104000D02*
X321282Y96900D01*
X319882Y102200D02*
X325682D01*
X316682Y105400D02*
X319882Y102200D01*
X101357Y102043D02*
X111200Y92200D01*
X101357Y102043D02*
Y108966D01*
X121800Y105400D02*
X125000Y102200D01*
X130800D01*
X121800Y105400D02*
Y108936D01*
X119271Y108966D02*
X119300Y108937D01*
X98798Y121398D02*
Y132100D01*
X89300Y97800D02*
X95000D01*
X98798Y101598D01*
Y108966D01*
X577591Y196850D02*
X578740Y195701D01*
X413681Y173622D02*
X413779D01*
X135300Y277242D02*
X135421Y277362D01*
X141047D01*
X149860Y279655D02*
X149929Y279724D01*
X148852Y279655D02*
X149860D01*
X146953Y277756D02*
X148852Y279655D01*
X146953Y277362D02*
Y277756D01*
X542100Y183045D02*
X556700Y197645D01*
X509683Y183045D02*
X542100D01*
X507989Y181351D02*
X509683Y183045D01*
X507989Y180466D02*
Y181351D01*
X506086Y178563D02*
X507989Y180466D01*
X548018Y158282D02*
X562598Y143701D01*
X511881Y158282D02*
X548018D01*
X511599Y158563D02*
X511881Y158282D01*
X505079Y158563D02*
X511599D01*
X577357Y211500D02*
X584133Y204724D01*
X561600Y211500D02*
X577357D01*
X556700Y206600D02*
X561600Y211500D01*
X556700Y197645D02*
Y206600D01*
X525276Y212400D02*
X532952Y204724D01*
X513500Y212400D02*
X525276D01*
X505800Y204700D02*
X513500Y212400D01*
X505800Y191233D02*
Y204700D01*
X503130Y188563D02*
X505800Y191233D01*
X497622Y158283D02*
X512205Y143701D01*
X520203D01*
X495079Y168563D02*
X505079Y158563D01*
X177559Y314961D02*
X177559Y314961D01*
X493110Y168563D02*
X495079D01*
X493110Y178563D02*
X506086D01*
X493110Y188563D02*
X503130D01*
X403224Y176043D02*
X403294Y175974D01*
Y175773D02*
Y175974D01*
Y175773D02*
X405807Y173260D01*
Y173031D02*
Y173260D01*
X177559Y314961D02*
X181496D01*
X630315Y230315D02*
X762795D01*
X628090Y232539D02*
X630315Y230315D01*
X628090Y232539D02*
Y236811D01*
X623091Y201043D02*
Y236811D01*
X599803Y177756D02*
X623091Y201043D01*
X599803Y170079D02*
Y177756D01*
X762795Y230315D02*
X785236Y252756D01*
X791535D01*
X599016Y158819D02*
Y160197D01*
X599425Y160606D01*
Y164583D01*
X599803Y164961D01*
X413779Y173622D02*
Y175197D01*
X413091Y173031D02*
X413681Y173622D01*
X459646Y153563D02*
X467520D01*
X459646Y163563D02*
X467520D01*
X459646Y173563D02*
X467520D01*
X459646Y183563D02*
X467520D01*
X181496Y314961D02*
X181496Y314961D01*
X493390Y158283D02*
X497622D01*
X493110Y158563D02*
X493390Y158283D01*
X562598Y143701D02*
X571384D01*
X578740Y194850D02*
Y195701D01*
X527197Y194520D02*
Y196850D01*
D130*
X69865Y182028D02*
X74669D01*
X74744Y182103D02*
Y182300D01*
X74669Y182028D02*
X74744Y182103D01*
X69644Y181808D02*
X69865Y182028D01*
X69644Y181398D02*
Y181808D01*
X636024Y125878D02*
Y137216D01*
X789567Y125091D02*
Y136429D01*
X108268Y309055D02*
X121653D01*
X392228Y172400D02*
X394828Y175000D01*
X214718Y172400D02*
X392228D01*
X207480Y179638D02*
X214718Y172400D01*
X709921Y310630D02*
X711800D01*
X709528Y310236D02*
X709921Y310630D01*
X243100Y250865D02*
Y251979D01*
X242900Y250900D02*
X242935Y250865D01*
X242900D02*
Y250900D01*
Y247700D02*
Y250865D01*
X242935D02*
X243100D01*
X242900Y219698D02*
Y247700D01*
Y219698D02*
X242913Y219685D01*
Y252165D02*
X243100Y251979D01*
X108268Y309055D02*
X108268Y309055D01*
X394828Y175000D02*
X394926D01*
X785236Y150551D02*
X794488Y159803D01*
Y232874D01*
X790354Y123563D02*
Y124303D01*
X789567Y125091D02*
X790354Y124303D01*
X636811Y124350D02*
Y125091D01*
X636024Y125878D02*
X636811Y125091D01*
X798228Y241142D02*
Y241882D01*
X797563Y242547D02*
X798228Y241882D01*
X797563Y242547D02*
Y247516D01*
X797441Y247638D02*
X797563Y247516D01*
X797441Y247638D02*
Y252756D01*
X797441Y252756D01*
X605709Y164961D02*
Y170079D01*
Y160984D02*
Y164961D01*
X606496Y158819D02*
Y160197D01*
X605709Y160984D02*
X606496Y160197D01*
X468976Y295179D02*
Y297244D01*
X449213Y41339D02*
Y43403D01*
X358268Y41339D02*
Y43403D01*
X295276Y41339D02*
Y43403D01*
X232283Y41339D02*
Y43403D01*
X151575Y41339D02*
Y43403D01*
X100394Y41339D02*
Y43403D01*
X49213Y41339D02*
Y43403D01*
D131*
X457484Y140500D02*
X461000D01*
X274000Y154266D02*
X274566Y153700D01*
X438300D01*
X274000Y134766D02*
Y154266D01*
Y130000D02*
Y134766D01*
X252279Y188853D02*
X255647D01*
X264000Y180500D01*
X397984Y189000D02*
X401500D01*
X438300Y153700D02*
X451500Y140500D01*
X457484D01*
X394926Y189000D02*
X397984D01*
X362984Y203000D02*
X366500D01*
X324757Y209979D02*
Y219494D01*
X386426Y180500D02*
X394926Y189000D01*
X378500Y192500D02*
X392500Y206500D01*
X321000Y192500D02*
X378500D01*
X392500Y206500D02*
X398500D01*
X264000Y180500D02*
X386426D01*
X309408Y219685D02*
X309599Y219494D01*
X331735Y203000D02*
X362984D01*
X324565Y219685D02*
X324757Y219494D01*
Y209979D02*
X331735Y203000D01*
X309599Y203901D02*
X321000Y192500D01*
X309599Y203901D02*
Y219494D01*
D132*
X447322Y270079D02*
Y278740D01*
X470866Y68386D02*
X478740D01*
X379921D02*
X387795D01*
X316929D02*
X324803D01*
X173228Y68504D02*
X181102D01*
X173228Y59842D02*
Y68504D01*
X122047Y68504D02*
X129921D01*
X122047Y59842D02*
Y68504D01*
X447244Y270079D02*
X447322D01*
X439448D02*
X447244D01*
X785681Y150551D02*
X803740Y132492D01*
X785236Y150551D02*
X785681D01*
X768952Y256626D02*
X771430D01*
X771905Y256152D01*
Y249606D02*
Y256152D01*
X768952Y256626D02*
Y263673D01*
X698952Y256626D02*
X701430D01*
X701905Y256152D01*
Y249606D02*
Y256152D01*
X698952Y256626D02*
X698952Y256626D01*
X698952Y256626D02*
Y263673D01*
X737638Y55024D02*
X751614D01*
X615945Y133280D02*
Y150551D01*
X602756D02*
X615945D01*
X122047Y59842D02*
X122441Y59449D01*
X173228Y59842D02*
X173622Y59449D01*
X253937Y68504D02*
X261811D01*
X253937Y59842D02*
Y68504D01*
Y59842D02*
X254331Y59449D01*
X316929Y59724D02*
Y68386D01*
Y59724D02*
X317323Y59331D01*
X379921Y59724D02*
Y68386D01*
Y59724D02*
X380315Y59331D01*
X470866Y59724D02*
Y68386D01*
Y59724D02*
X471260Y59331D01*
X446928Y279134D02*
X447322Y278740D01*
X70866Y59842D02*
X71260Y59449D01*
X70866Y59842D02*
Y68504D01*
X78740D01*
D133*
X109252Y52165D02*
X120079Y41339D01*
X109252Y52165D02*
Y58268D01*
X449291Y297244D02*
X460117Y286417D01*
Y280315D02*
Y286417D01*
X465629Y280315D02*
Y291833D01*
X468976Y295179D01*
X458071Y52165D02*
X468898Y41339D01*
X458071Y52165D02*
Y58268D01*
X452559Y46750D02*
Y58268D01*
X449213Y43403D02*
X452559Y46750D01*
X367126Y52165D02*
X377953Y41339D01*
X367126Y52165D02*
Y58268D01*
X361614Y46750D02*
Y58268D01*
X358268Y43403D02*
X361614Y46750D01*
X304134Y52165D02*
X314961Y41339D01*
X304134Y52165D02*
Y58268D01*
X298622Y46750D02*
Y58268D01*
X295276Y43403D02*
X298622Y46750D01*
X241142Y52165D02*
X251969Y41339D01*
X241142Y52165D02*
Y58268D01*
X235630Y46750D02*
Y58268D01*
X232283Y43403D02*
X235630Y46750D01*
X160433Y52165D02*
X171260Y41339D01*
X160433Y52165D02*
Y58268D01*
X154921Y46750D02*
Y58268D01*
X151575Y43403D02*
X154921Y46750D01*
X103740D02*
Y58268D01*
X100394Y43403D02*
X103740Y46750D01*
X49213Y43403D02*
X52559Y46750D01*
Y58268D01*
X58071Y52165D02*
Y58268D01*
Y52165D02*
X68898Y41339D01*
D134*
X633102Y96078D02*
Y112205D01*
X584133Y250579D02*
X591494Y243218D01*
X532952Y250579D02*
X540313Y243218D01*
X786583Y111811D02*
X786614D01*
X513700Y188150D02*
X523700D01*
X564881D02*
X574881D01*
X584881D01*
X513700Y153386D02*
X523700D01*
X533700D01*
X454000Y206500D02*
X454500Y207000D01*
Y233500D01*
X527197Y198565D02*
X532952Y204320D01*
Y204724D01*
X527197Y196850D02*
Y198565D01*
X540313Y194763D02*
Y243218D01*
X532952Y250579D02*
Y250984D01*
X533700Y188150D02*
X540313Y194763D01*
X233071Y252165D02*
Y273819D01*
X533238Y277845D02*
Y298830D01*
X591494Y194763D02*
Y243218D01*
X584133Y250579D02*
Y250984D01*
X584881Y188150D02*
X591494Y194763D01*
X513700Y163386D02*
Y178150D01*
X523700Y163386D02*
Y178150D01*
X533700Y163386D02*
Y178150D01*
X564881Y163386D02*
Y178150D01*
X584881Y163386D02*
Y178150D01*
X574881Y163386D02*
Y178150D01*
X667638Y55024D02*
X681614D01*
X642913Y133071D02*
X651180Y141338D01*
X642913Y118224D02*
Y133071D01*
X640772Y116083D02*
X642913Y118224D01*
X633071Y116083D02*
X640772D01*
X651180Y141338D02*
Y168898D01*
X758476Y115295D02*
X760295D01*
X721180Y78000D02*
X758476Y115295D01*
X760295D02*
X786614D01*
X721180Y154410D02*
X760295Y115295D01*
X721180Y154410D02*
Y168898D01*
X786614Y111811D02*
Y115295D01*
X633102Y112205D02*
Y116051D01*
X633071Y116083D02*
X633102Y116051D01*
Y96078D02*
X651180Y78000D01*
X793012Y105382D02*
X794488D01*
X786583Y111811D02*
X793012Y105382D01*
X626673Y105776D02*
X633102Y112205D01*
X625197Y105776D02*
X626673D01*
X514448Y90551D02*
Y90956D01*
X533700Y153141D02*
Y153386D01*
Y153141D02*
X540551Y146290D01*
Y116654D02*
Y146290D01*
X514448Y90551D02*
X540551Y116654D01*
X565629Y90551D02*
X591732Y116654D01*
Y146290D01*
X584881Y153141D02*
X591732Y146290D01*
X584881Y153141D02*
Y153386D01*
X565629Y204320D02*
X571685Y198264D01*
X565629Y204320D02*
Y204724D01*
X571685Y196850D02*
Y198264D01*
X514448Y204320D02*
X520504Y198264D01*
X514448Y204320D02*
Y204724D01*
X520504Y196850D02*
Y198264D01*
X584133Y204320D02*
Y204724D01*
X578378Y198565D02*
X584133Y204320D01*
X578378Y196850D02*
Y198565D01*
X584133Y135827D02*
Y136232D01*
X578077Y142288D02*
X584133Y136232D01*
X578077Y142288D02*
Y143701D01*
X571384Y141987D02*
Y143701D01*
X565629Y136232D02*
X571384Y141987D01*
X565629Y135827D02*
Y136232D01*
X532952Y135827D02*
Y136232D01*
X526896Y142288D02*
X532952Y136232D01*
X526896Y142288D02*
Y143701D01*
X520203Y141987D02*
Y143701D01*
X514448Y136232D02*
X520203Y141987D01*
X514448Y135827D02*
Y136232D01*
X584133Y277559D02*
X584419Y277845D01*
Y298830D01*
X584801Y299213D01*
X533238Y298830D02*
X533620Y299213D01*
X532952Y277559D02*
X533238Y277845D01*
X523700Y188150D02*
X533700D01*
X565629Y90551D02*
Y90956D01*
X564881Y153386D02*
X574881D01*
X584881D01*
X513779Y41339D02*
X514162Y41721D01*
Y62706D01*
X514448Y62992D01*
X564961Y41339D02*
X565343Y41721D01*
Y62706D01*
X565629Y62992D01*
D135*
X32700Y137000D02*
D03*
X77700D02*
D03*
D136*
X37700Y162000D02*
D03*
X42700Y172000D02*
D03*
X47700Y162000D02*
D03*
X52700Y172000D02*
D03*
X57700Y162000D02*
D03*
X62700Y172000D02*
D03*
X67700Y162000D02*
D03*
X72700Y172000D02*
D03*
D137*
X162000Y258588D02*
D03*
D138*
X172000D02*
D03*
X182000D02*
D03*
X192000D02*
D03*
X202000D02*
D03*
X212000D02*
D03*
X110236Y205638D02*
D03*
X86614D02*
D03*
X94488D02*
D03*
X102362D02*
D03*
X164173Y181613D02*
D03*
X140551D02*
D03*
X148425D02*
D03*
X156299D02*
D03*
X164173Y205638D02*
D03*
X140551D02*
D03*
X148425D02*
D03*
X156299D02*
D03*
X207480D02*
D03*
X183858D02*
D03*
X191732D02*
D03*
X199606D02*
D03*
X207480Y179638D02*
D03*
X183858D02*
D03*
X191732D02*
D03*
X199606D02*
D03*
D139*
X533700Y188150D02*
D03*
Y178150D02*
D03*
X523700Y188150D02*
D03*
Y178150D02*
D03*
X513700Y188150D02*
D03*
X584881D02*
D03*
Y178150D02*
D03*
X574881Y188150D02*
D03*
Y178150D02*
D03*
X564881Y188150D02*
D03*
Y153386D02*
D03*
Y163386D02*
D03*
X574881Y153386D02*
D03*
Y163386D02*
D03*
X584881Y153386D02*
D03*
X513700D02*
D03*
Y163386D02*
D03*
X523700Y153386D02*
D03*
Y163386D02*
D03*
X533700Y153386D02*
D03*
D140*
X513700Y178150D02*
D03*
X564881D02*
D03*
X584881Y163386D02*
D03*
X533700D02*
D03*
D141*
X449213Y41339D02*
D03*
X468898D02*
D03*
X469054Y299213D02*
D03*
X449368D02*
D03*
X665038D02*
D03*
X684723D02*
D03*
X735038D02*
D03*
X754723D02*
D03*
X664882Y41339D02*
D03*
X684567D02*
D03*
X734882D02*
D03*
X754567D02*
D03*
X232439Y299213D02*
D03*
X252124D02*
D03*
X295431D02*
D03*
X315117D02*
D03*
X251969Y41339D02*
D03*
X232283D02*
D03*
X171260Y41339D02*
D03*
X151575D02*
D03*
X120079Y41339D02*
D03*
X100394D02*
D03*
X68898D02*
D03*
X49213D02*
D03*
X533465D02*
D03*
X513779D02*
D03*
X584646D02*
D03*
X564961D02*
D03*
X513935Y299213D02*
D03*
X533620D02*
D03*
X565117D02*
D03*
X584801D02*
D03*
X377953Y41339D02*
D03*
X358268D02*
D03*
X314961D02*
D03*
X295276D02*
D03*
X358424Y299213D02*
D03*
X378109D02*
D03*
D142*
X651180Y216929D02*
D03*
X698424D02*
D03*
Y168898D02*
D03*
X651180D02*
D03*
X674802Y161024D02*
D03*
X651180Y126031D02*
D03*
X698424D02*
D03*
Y78000D02*
D03*
X651180D02*
D03*
X674802Y70126D02*
D03*
X721180Y216929D02*
D03*
X768424D02*
D03*
Y168898D02*
D03*
X721180D02*
D03*
X744802Y161024D02*
D03*
X721180Y126031D02*
D03*
X768424D02*
D03*
Y78000D02*
D03*
X721180D02*
D03*
X744802Y70126D02*
D03*
X143917Y317756D02*
D03*
X116319D02*
D03*
D143*
X615945Y133280D02*
D03*
X803740Y132492D02*
D03*
D144*
X615945Y123280D02*
D03*
X803740Y122492D02*
D03*
D145*
X615945Y150551D02*
D03*
X634449D02*
D03*
Y195827D02*
D03*
Y223386D02*
D03*
X785236Y150551D02*
D03*
X803740D02*
D03*
Y195827D02*
D03*
Y223386D02*
D03*
X532952Y135827D02*
D03*
X514448D02*
D03*
Y90551D02*
D03*
Y62992D02*
D03*
X584133Y135827D02*
D03*
X565629D02*
D03*
Y90551D02*
D03*
Y62992D02*
D03*
X514448Y204724D02*
D03*
X532952D02*
D03*
Y250000D02*
D03*
Y277559D02*
D03*
X565629Y204724D02*
D03*
X584133D02*
D03*
Y250000D02*
D03*
Y277559D02*
D03*
D146*
X799213Y320866D02*
D03*
Y19685D02*
D03*
X19685D02*
D03*
Y320866D02*
D03*
D147*
X138976Y327559D02*
D03*
X121260D02*
D03*
D148*
X64500Y185300D02*
D03*
X72300Y184000D02*
D03*
X14400Y176700D02*
D03*
X82400Y184641D02*
D03*
X94488Y128000D02*
D03*
X96100Y115200D02*
D03*
X34200Y246700D02*
D03*
X123300Y178700D02*
D03*
X119100Y171300D02*
D03*
X106861Y176500D02*
D03*
X113700Y170600D02*
D03*
X124100Y181613D02*
D03*
X99100Y305000D02*
D03*
X92400Y290200D02*
D03*
X52400Y237400D02*
D03*
X260000Y105200D02*
D03*
X286400Y116800D02*
D03*
X290900Y109100D02*
D03*
X129800Y121200D02*
D03*
X316600Y120600D02*
D03*
X274016Y131500D02*
D03*
Y134766D02*
D03*
X103905Y136000D02*
D03*
X211500Y128800D02*
D03*
X38600Y244100D02*
D03*
X124500Y229200D02*
D03*
X121600Y224456D02*
D03*
X128300Y221500D02*
D03*
X146400Y241787D02*
D03*
X127600Y231200D02*
D03*
X146400Y235500D02*
D03*
Y238644D02*
D03*
Y244931D02*
D03*
X152553Y217400D02*
D03*
Y222200D02*
D03*
X124500Y219800D02*
D03*
X193442Y224400D02*
D03*
X201500Y134700D02*
D03*
X172300Y161600D02*
D03*
X107400Y217481D02*
D03*
X109800Y215300D02*
D03*
X216500Y135200D02*
D03*
X102362Y259600D02*
D03*
X108325Y244112D02*
D03*
X124100Y244104D02*
D03*
X96850Y227165D02*
D03*
X207480Y223344D02*
D03*
X203965Y220079D02*
D03*
X207480D02*
D03*
Y216813D02*
D03*
X327894Y219685D02*
D03*
X270500Y219291D02*
D03*
X361024Y216419D02*
D03*
X324410D02*
D03*
X309364Y216645D02*
D03*
X274016Y216026D02*
D03*
X361024Y219685D02*
D03*
X364508D02*
D03*
X357508D02*
D03*
X324410D02*
D03*
X320894D02*
D03*
X312848Y219911D02*
D03*
X305848D02*
D03*
X309364D02*
D03*
X294094Y219685D02*
D03*
X277500Y219291D02*
D03*
X274016D02*
D03*
X242520Y219685D02*
D03*
X108268Y284055D02*
D03*
X108268Y299055D02*
D03*
X298900Y102000D02*
D03*
X303917Y105100D02*
D03*
X149300Y109000D02*
D03*
X139600Y96900D02*
D03*
X138200Y92200D02*
D03*
X161417Y73228D02*
D03*
X121200Y96300D02*
D03*
X290800Y132100D02*
D03*
X191500Y134400D02*
D03*
X218900Y153800D02*
D03*
X226500Y106400D02*
D03*
X109035Y105100D02*
D03*
X116700Y136000D02*
D03*
X298787D02*
D03*
X311582D02*
D03*
X264100Y97700D02*
D03*
X319400Y132100D02*
D03*
X191400Y109800D02*
D03*
X124800Y132100D02*
D03*
X95700Y109100D02*
D03*
X344893Y92200D02*
D03*
X346293Y96900D02*
D03*
X325782Y102200D02*
D03*
X130900D02*
D03*
X122400Y59100D02*
D03*
X129921Y68110D02*
D03*
X89300Y97800D02*
D03*
X274016Y128234D02*
D03*
X277500Y131500D02*
D03*
X270500D02*
D03*
X618100Y276200D02*
D03*
X604000Y268700D02*
D03*
X600700D02*
D03*
X618100Y273400D02*
D03*
X623600Y275000D02*
D03*
X685433Y327165D02*
D03*
X119488Y294094D02*
D03*
Y289055D02*
D03*
X143700Y273700D02*
D03*
X141400Y251100D02*
D03*
X130600Y277500D02*
D03*
X131102Y244488D02*
D03*
X657700Y320299D02*
D03*
X670700Y314500D02*
D03*
X676600Y311800D02*
D03*
X711800Y310630D02*
D03*
X727100Y304800D02*
D03*
X702260Y304200D02*
D03*
X663479Y311700D02*
D03*
X663600Y314700D02*
D03*
X775647Y283465D02*
D03*
X702170Y282712D02*
D03*
X708076D02*
D03*
X698300Y287600D02*
D03*
X781553Y283465D02*
D03*
X243307Y259736D02*
D03*
X243298Y263800D02*
D03*
X242900Y250865D02*
D03*
Y247700D02*
D03*
X242913Y274016D02*
D03*
X648819Y268110D02*
D03*
Y251969D02*
D03*
X656890Y260039D02*
D03*
X493307Y163500D02*
D03*
X757520Y55024D02*
D03*
X78740Y77953D02*
D03*
X70866D02*
D03*
X177000Y319512D02*
D03*
X166535D02*
D03*
X166600Y328600D02*
D03*
X171677Y319512D02*
D03*
X177559Y314961D02*
D03*
X152400Y308500D02*
D03*
X152173Y270866D02*
D03*
X149929Y279724D02*
D03*
X461600Y263400D02*
D03*
Y267200D02*
D03*
X456600Y263400D02*
D03*
Y267200D02*
D03*
X439764Y280709D02*
D03*
X439370Y270079D02*
D03*
X446850Y280709D02*
D03*
X639370Y310236D02*
D03*
X745179Y240797D02*
D03*
X670500Y290900D02*
D03*
X640158Y289370D02*
D03*
X659500Y292500D02*
D03*
X635000Y281500D02*
D03*
X631000D02*
D03*
X675179Y240797D02*
D03*
X454500Y230234D02*
D03*
X450984Y233500D02*
D03*
X457984D02*
D03*
X454500Y236766D02*
D03*
X454000Y203234D02*
D03*
X450484Y206500D02*
D03*
X457484D02*
D03*
X454000Y209766D02*
D03*
Y206500D02*
D03*
X454500Y233500D02*
D03*
X640500Y296500D02*
D03*
X137500Y309500D02*
D03*
X137008Y304055D02*
D03*
X394926Y175000D02*
D03*
X252279Y188853D02*
D03*
Y192118D02*
D03*
X255764Y188853D02*
D03*
X248763D02*
D03*
X252279Y185587D02*
D03*
X274016Y154266D02*
D03*
Y157531D02*
D03*
X277500Y154266D02*
D03*
X270500D02*
D03*
X274016Y151000D02*
D03*
Y222557D02*
D03*
X309364Y223176D02*
D03*
X461000Y143766D02*
D03*
X464484Y140500D02*
D03*
X457484D02*
D03*
X461000Y137234D02*
D03*
X398500Y209766D02*
D03*
X401984Y206500D02*
D03*
X394984D02*
D03*
X398500Y203234D02*
D03*
X401500Y192266D02*
D03*
X404984Y189000D02*
D03*
X397984D02*
D03*
X401500Y185734D02*
D03*
Y189000D02*
D03*
X493307Y153500D02*
D03*
X493110Y173563D02*
D03*
X493307Y183858D02*
D03*
X398500Y206500D02*
D03*
X461000Y140500D02*
D03*
X210965Y220079D02*
D03*
X361024Y222951D02*
D03*
X324410D02*
D03*
X366500Y199734D02*
D03*
X362984Y203000D02*
D03*
X369984D02*
D03*
X366500Y206266D02*
D03*
Y203000D02*
D03*
X252756Y248309D02*
D03*
X249240Y251575D02*
D03*
X256240D02*
D03*
X252756Y254840D02*
D03*
X467717Y188583D02*
D03*
Y178347D02*
D03*
X323500Y279500D02*
D03*
X30500Y107500D02*
D03*
X227000Y247231D02*
D03*
X347000Y272500D02*
D03*
X360500Y267500D02*
D03*
X225000Y262500D02*
D03*
Y267500D02*
D03*
X243000Y270500D02*
D03*
X242913Y277165D02*
D03*
X355906Y267717D02*
D03*
X316500Y241000D02*
D03*
X324500D02*
D03*
X332000D02*
D03*
X182500Y309000D02*
D03*
X717323Y315064D02*
D03*
X744500Y289528D02*
D03*
X735432Y283070D02*
D03*
X639370Y315064D02*
D03*
X709449Y314961D02*
D03*
X685433Y310236D02*
D03*
X682777Y283465D02*
D03*
X791339Y247638D02*
D03*
X772863Y276772D02*
D03*
X768924D02*
D03*
X764985D02*
D03*
X752500Y283465D02*
D03*
X768898Y269685D02*
D03*
X252756Y276969D02*
D03*
Y273819D02*
D03*
Y270500D02*
D03*
X41339Y309055D02*
D03*
X142476Y309799D02*
D03*
X127165Y309055D02*
D03*
X108268Y308858D02*
D03*
X162500Y304000D02*
D03*
X41339Y304055D02*
D03*
X173843Y330141D02*
D03*
X157087Y315064D02*
D03*
X628090Y275000D02*
D03*
X190000Y308000D02*
D03*
Y318500D02*
D03*
X152433Y288000D02*
D03*
X101500Y278000D02*
D03*
X628138Y186860D02*
D03*
X631000Y187500D02*
D03*
X629331Y124350D02*
D03*
X630047Y131000D02*
D03*
X602953Y279528D02*
D03*
X727953Y294094D02*
D03*
X647638Y289764D02*
D03*
X639370Y268701D02*
D03*
Y253701D02*
D03*
X639764Y279528D02*
D03*
X798032Y75244D02*
D03*
X790945D02*
D03*
Y80756D02*
D03*
X798032D02*
D03*
X628740Y81102D02*
D03*
X621654D02*
D03*
Y75590D02*
D03*
X628740D02*
D03*
X9449Y71260D02*
D03*
X9843Y101575D02*
D03*
Y91732D02*
D03*
X451968Y82953D02*
D03*
X361024D02*
D03*
X298031D02*
D03*
X235039Y83071D02*
D03*
X51968Y83071D02*
D03*
X103150D02*
D03*
X154331Y83071D02*
D03*
X457874Y88976D02*
D03*
X285254Y274193D02*
D03*
X303246Y274213D02*
D03*
X314677Y274488D02*
D03*
X327559Y263345D02*
D03*
X322441D02*
D03*
X351969Y276969D02*
D03*
X722342Y327213D02*
D03*
X702343D02*
D03*
X705905Y291732D02*
D03*
X711437Y294094D02*
D03*
X717717Y294055D02*
D03*
X717323Y310630D02*
D03*
X790551Y240945D02*
D03*
X783465Y130709D02*
D03*
X782677Y123622D02*
D03*
X702718Y276772D02*
D03*
X694840D02*
D03*
X698779D02*
D03*
X732598Y254331D02*
D03*
X737716D02*
D03*
Y251575D02*
D03*
X732598D02*
D03*
X743032Y251969D02*
D03*
X726890D02*
D03*
X734961Y260039D02*
D03*
X718819Y275000D02*
D03*
Y260039D02*
D03*
Y268110D02*
D03*
Y251969D02*
D03*
Y283071D02*
D03*
X743032Y260039D02*
D03*
X726890D02*
D03*
X732205Y55118D02*
D03*
X687402D02*
D03*
X662205D02*
D03*
X662598Y251575D02*
D03*
X667717D02*
D03*
Y254331D02*
D03*
X662598D02*
D03*
X698819Y269685D02*
D03*
X706437Y299213D02*
D03*
X717343Y319685D02*
D03*
X709449D02*
D03*
X692343Y305858D02*
D03*
X685433Y315748D02*
D03*
Y321654D02*
D03*
X692343Y327213D02*
D03*
X647244Y320472D02*
D03*
X639370Y320079D02*
D03*
X647244Y310236D02*
D03*
Y314961D02*
D03*
X673032Y251969D02*
D03*
Y260039D02*
D03*
X664961D02*
D03*
X656890Y251969D02*
D03*
X648819Y260039D02*
D03*
X602362Y253701D02*
D03*
X602756Y289370D02*
D03*
X633090Y275000D02*
D03*
Y236811D02*
D03*
X618090D02*
D03*
X599016Y158819D02*
D03*
X403224Y176043D02*
D03*
X413779Y175197D02*
D03*
X467717Y158661D02*
D03*
Y168504D02*
D03*
X349213Y264961D02*
D03*
X366929Y267717D02*
D03*
X372441Y267728D02*
D03*
X370079Y277165D02*
D03*
X361024D02*
D03*
X320472Y274193D02*
D03*
X326772Y282392D02*
D03*
X333858Y277362D02*
D03*
X326772Y272155D02*
D03*
X316142Y266535D02*
D03*
X324410Y254331D02*
D03*
X332087D02*
D03*
X316732Y248425D02*
D03*
X324410D02*
D03*
X332087D02*
D03*
X287205Y242520D02*
D03*
X294882D02*
D03*
X302559D02*
D03*
X287205Y251575D02*
D03*
X294882D02*
D03*
X302559D02*
D03*
X294685Y260236D02*
D03*
X302362D02*
D03*
X287008D02*
D03*
X303543Y269094D02*
D03*
X303150Y284528D02*
D03*
X292126Y279705D02*
D03*
X296850D02*
D03*
Y274193D02*
D03*
X292126D02*
D03*
X285433Y269094D02*
D03*
X285254Y284528D02*
D03*
X274016Y274193D02*
D03*
X278740D02*
D03*
Y279705D02*
D03*
X274016D02*
D03*
X225197Y255906D02*
D03*
X222835Y280709D02*
D03*
X225197Y274016D02*
D03*
X234646Y274016D02*
D03*
X252756Y251575D02*
D03*
X225197Y220079D02*
D03*
X468898Y274016D02*
D03*
X447244Y260583D02*
D03*
X439370Y260630D02*
D03*
X449213Y64567D02*
D03*
X459055Y73228D02*
D03*
X470866Y78000D02*
D03*
X478740Y77953D02*
D03*
X358268Y64567D02*
D03*
X368110Y73228D02*
D03*
X379921Y78000D02*
D03*
X387795Y77953D02*
D03*
X295276Y64567D02*
D03*
X305118Y73228D02*
D03*
X316929Y78000D02*
D03*
X324803Y77953D02*
D03*
X261811D02*
D03*
X253937Y78000D02*
D03*
X242126Y73228D02*
D03*
X232283Y64567D02*
D03*
X181102Y77953D02*
D03*
X173228Y78000D02*
D03*
X151378Y64567D02*
D03*
X59055Y73228D02*
D03*
X129921Y77953D02*
D03*
X122047D02*
D03*
X110236Y73622D02*
D03*
X100394Y64567D02*
D03*
X78347Y272155D02*
D03*
X70472Y272047D02*
D03*
X63779D02*
D03*
Y279413D02*
D03*
X70866D02*
D03*
X78347D02*
D03*
X77953Y286614D02*
D03*
X70866D02*
D03*
X63779D02*
D03*
X14961Y284252D02*
D03*
Y258661D02*
D03*
Y107480D02*
D03*
X30709Y101969D02*
D03*
X37402Y107480D02*
D03*
X30709Y91732D02*
D03*
X37402Y87402D02*
D03*
Y70866D02*
D03*
X30709Y66929D02*
D03*
X49213Y64567D02*
D03*
X447244Y270079D02*
D03*
X478346Y59055D02*
D03*
X471260D02*
D03*
X478740Y68504D02*
D03*
X470866D02*
D03*
X387402Y59055D02*
D03*
X380315D02*
D03*
X387795Y68504D02*
D03*
X379921D02*
D03*
X324410Y59055D02*
D03*
X317323D02*
D03*
X324803Y68504D02*
D03*
X316929D02*
D03*
X253937D02*
D03*
X261811D02*
D03*
X254331Y59055D02*
D03*
X261417D02*
D03*
X173622Y59449D02*
D03*
Y68110D02*
D03*
X181102D02*
D03*
X180709Y59449D02*
D03*
X129528D02*
D03*
X122441Y68110D02*
D03*
X78740Y68504D02*
D03*
X70866D02*
D03*
X78347Y59055D02*
D03*
X71260D02*
D03*
X147433Y288189D02*
D03*
X41339Y299055D02*
D03*
X108268Y289055D02*
D03*
X108268Y294055D02*
D03*
X717343Y327213D02*
D03*
X712297Y327258D02*
D03*
M02*
