G04*
G04 #@! TF.GenerationSoftware,Altium Limited,Altium Designer,19.0.10 (269)*
G04*
G04 Layer_Color=128*
%FSLAX25Y25*%
%MOIN*%
G70*
G01*
G75*
%ADD23R,0.03150X0.03543*%
%ADD27C,0.01181*%
%ADD28R,0.03543X0.02756*%
%ADD29R,0.02756X0.03543*%
%ADD30R,0.03543X0.03150*%
%ADD33R,0.05512X0.01181*%
%ADD40R,0.02559X0.06004*%
%ADD153R,0.05512X0.01772*%
%ADD154R,0.09055X0.06299*%
%ADD155R,0.06299X0.02559*%
%ADD156R,0.04724X0.01772*%
%ADD157R,0.07087X0.04724*%
%ADD158R,0.05709X0.02756*%
%ADD159R,0.05118X0.07087*%
%ADD160R,0.06496X0.03740*%
%ADD161R,0.06496X0.12795*%
%ADD162R,0.07087X0.05118*%
%ADD163R,0.01713X0.06008*%
%ADD164R,0.04134X0.02362*%
%ADD165R,0.02362X0.04134*%
%ADD166R,0.03937X0.03347*%
D23*
X225197Y255906D02*
D03*
X230709D02*
D03*
X225197Y261942D02*
D03*
X230709D02*
D03*
X225197Y274016D02*
D03*
X230709D02*
D03*
X225197Y267979D02*
D03*
X230709D02*
D03*
X152173Y270866D02*
D03*
X157685D02*
D03*
D27*
X148900Y251900D02*
D03*
X151900D02*
D03*
D28*
X108268Y284055D02*
D03*
Y278150D02*
D03*
X108268Y299055D02*
D03*
Y304961D02*
D03*
X177297Y308858D02*
D03*
Y314764D02*
D03*
X131890Y277362D02*
D03*
Y283268D02*
D03*
X171916Y314764D02*
D03*
Y308858D02*
D03*
X166535Y314764D02*
D03*
Y308858D02*
D03*
D29*
X771453Y283465D02*
D03*
X765547D02*
D03*
X781553D02*
D03*
X775647D02*
D03*
X708076Y282712D02*
D03*
X702170D02*
D03*
X697976D02*
D03*
X692070D02*
D03*
X711437Y294094D02*
D03*
X717343D02*
D03*
X712343Y299213D02*
D03*
X706437D02*
D03*
X602953Y279528D02*
D03*
X608858D02*
D03*
X602953Y289528D02*
D03*
X608858D02*
D03*
X151378Y315354D02*
D03*
X157283D02*
D03*
X157882Y275984D02*
D03*
X151976D02*
D03*
X125394Y270079D02*
D03*
X119488D02*
D03*
X139173D02*
D03*
X133268D02*
D03*
X131496Y250000D02*
D03*
X137402D02*
D03*
X125394Y294094D02*
D03*
X119488D02*
D03*
X125394Y289055D02*
D03*
X119488D02*
D03*
D30*
X685433Y315748D02*
D03*
Y310236D02*
D03*
Y327165D02*
D03*
Y321654D02*
D03*
X355906Y267717D02*
D03*
Y273228D02*
D03*
X361417Y267728D02*
D03*
Y273240D02*
D03*
X366929Y267717D02*
D03*
Y273228D02*
D03*
X372441Y267728D02*
D03*
Y273240D02*
D03*
X315354Y279705D02*
D03*
Y274193D02*
D03*
X320472Y279705D02*
D03*
Y274193D02*
D03*
X322441Y257833D02*
D03*
Y263345D02*
D03*
X327559Y257833D02*
D03*
Y263345D02*
D03*
X278740Y279705D02*
D03*
Y274193D02*
D03*
X274016Y279705D02*
D03*
Y274193D02*
D03*
X292126Y279705D02*
D03*
Y274193D02*
D03*
X296850Y279705D02*
D03*
Y274193D02*
D03*
X182677Y309055D02*
D03*
Y314567D02*
D03*
X171850Y326378D02*
D03*
Y320866D02*
D03*
X166535Y326378D02*
D03*
Y320866D02*
D03*
X182677Y326772D02*
D03*
Y321260D02*
D03*
D33*
X673699Y279528D02*
D03*
Y281496D02*
D03*
Y283465D02*
D03*
Y285433D02*
D03*
Y287402D02*
D03*
X656376D02*
D03*
Y285433D02*
D03*
Y283465D02*
D03*
Y281496D02*
D03*
Y279528D02*
D03*
X743699D02*
D03*
Y281496D02*
D03*
Y283465D02*
D03*
Y285433D02*
D03*
Y287402D02*
D03*
X726376D02*
D03*
Y285433D02*
D03*
Y283465D02*
D03*
Y281496D02*
D03*
Y279528D02*
D03*
D40*
X692343Y305858D02*
D03*
X697342D02*
D03*
X702343D02*
D03*
X707342D02*
D03*
X712343D02*
D03*
X717343D02*
D03*
X722342D02*
D03*
X727343D02*
D03*
Y327213D02*
D03*
X722342D02*
D03*
X717343D02*
D03*
X712343D02*
D03*
X707342D02*
D03*
X702343D02*
D03*
X697342D02*
D03*
X692343D02*
D03*
D153*
X674961Y312261D02*
D03*
Y314821D02*
D03*
Y317379D02*
D03*
Y319939D02*
D03*
X657639D02*
D03*
Y317379D02*
D03*
Y314821D02*
D03*
Y312261D02*
D03*
D154*
X665153Y253150D02*
D03*
X682476D02*
D03*
X735153D02*
D03*
X752476D02*
D03*
D155*
X602362Y253701D02*
D03*
Y258701D02*
D03*
Y263701D02*
D03*
Y268701D02*
D03*
X640551D02*
D03*
Y263701D02*
D03*
Y258701D02*
D03*
Y253701D02*
D03*
D156*
X660116Y274213D02*
D03*
Y271654D02*
D03*
Y269094D02*
D03*
Y266535D02*
D03*
X669959D02*
D03*
Y269094D02*
D03*
Y271654D02*
D03*
Y274213D02*
D03*
X730117D02*
D03*
Y271654D02*
D03*
Y269094D02*
D03*
Y266535D02*
D03*
X739959D02*
D03*
Y269094D02*
D03*
Y271654D02*
D03*
Y274213D02*
D03*
D157*
X684723Y283465D02*
D03*
Y271654D02*
D03*
X754723Y283465D02*
D03*
Y271654D02*
D03*
D158*
X640551Y279528D02*
D03*
Y284528D02*
D03*
Y289528D02*
D03*
Y294528D02*
D03*
X618504D02*
D03*
Y289528D02*
D03*
Y284528D02*
D03*
Y279528D02*
D03*
D159*
X349213Y264961D02*
D03*
Y275197D02*
D03*
X326772Y282392D02*
D03*
Y272155D02*
D03*
X316142Y255146D02*
D03*
Y265382D02*
D03*
X285254Y282392D02*
D03*
Y272155D02*
D03*
X303246Y282392D02*
D03*
Y272155D02*
D03*
X190157Y318366D02*
D03*
Y308130D02*
D03*
D160*
X243298Y254745D02*
D03*
Y263800D02*
D03*
Y272855D02*
D03*
D161*
X268102Y263800D02*
D03*
D162*
X222835Y280709D02*
D03*
X233071D02*
D03*
D163*
X139929Y283417D02*
D03*
X142433D02*
D03*
X144929D02*
D03*
X147433D02*
D03*
X149929D02*
D03*
X152433D02*
D03*
X154929D02*
D03*
X157433D02*
D03*
X159929D02*
D03*
X162433D02*
D03*
Y304772D02*
D03*
X159929D02*
D03*
X157433D02*
D03*
X154929D02*
D03*
X152433D02*
D03*
X149929D02*
D03*
X147433D02*
D03*
X144929D02*
D03*
X142433D02*
D03*
X139929D02*
D03*
D164*
X118110Y279724D02*
D03*
X126772Y275984D02*
D03*
Y283465D02*
D03*
D165*
X136221Y255906D02*
D03*
X139961Y264567D02*
D03*
X132480D02*
D03*
X122441Y255906D02*
D03*
X126181Y264567D02*
D03*
X118701D02*
D03*
D166*
X177165Y327165D02*
D03*
Y320866D02*
D03*
M02*
