M48
;Layer_Color=9474304
;FILE_FORMAT=2:5
INCH,TZ
;TYPE=PLATED
T1F00S00C0.01575
T2F00S00C0.02992
T3F00S00C0.03000
T4F00S00C0.03543
T5F00S00C0.03937
T6F00S00C0.04331
T7F00S00C0.04528
T8F00S00C0.04724
T9F00S00C0.05118
T10F00S00C0.05906
T11F00S00C0.15748
;TYPE=NON_PLATED
T12F00S00C0.12795
%
T01
X790945Y75244
Y80756
X798032
Y75244
X782677Y123622
X783465Y130709
X757520Y55024
X732205Y55118
X687402
X662205
X628740Y75590
Y81102
X621654
Y75590
X629331Y124350
X630047Y131000
X599016Y158819
X493307Y163500
Y153500
X493110Y173563
X493307Y183858
X467717Y178347
Y168504
Y158661
X470866Y78000
X478740Y77953
Y68504
X470866
X471260Y59055
X478346
X459055Y73228
X451968Y82953
X457874Y88976
X449213Y64567
X387795Y68504
X379921
X379921Y78000
X387795Y77953
X387402Y59055
X380315
X368110Y73228
X361024Y82953
X358268Y64567
X324803Y68504
X316929
Y78000
X324803Y77953
X324410Y59055
X317323
X325782Y102200
X346293Y96900
X344893Y92200
X316600Y120600
X319400Y132100
X311582Y136000
X394926Y175000
X403224Y176043
X413779Y175197
X457484Y140500
X461000
Y143766
Y137234
X464484Y140500
X298787Y136000
X290800Y132100
X277500Y131500
X274016
Y134766
Y128234
X270500Y131500
X270500Y154266
X274016
Y157531
Y151000
X277500Y154266
X286400Y116800
X290900Y109100
X298900Y102000
X303917Y105100
X298031Y82953
X305118Y73228
X295276Y64567
X261811Y68504
X253937
Y78000
X261811Y77953
X261417Y59055
X254331
X242126Y73228
X235039Y83071
X232283Y64567
X226500Y106400
X260000Y105200
X264100Y97700
X211500Y128800
X216500Y135200
X201500Y134700
X191500Y134400
X191400Y109800
X181102Y77953
X173228Y78000
X173622Y68110
X181102
X180709Y59449
X173622
X161417Y73228
X154331Y83071
X172300Y161600
X218900Y153800
X149300Y109000
X139600Y96900
X138200Y92200
X130900Y102200
X121200Y96300
X122047Y77953
X129921
Y68110
X122441
X122400Y59100
X129528Y59449
X151378Y64567
X110236Y73622
X103150Y83071
X100394Y64567
X78740Y68504
X70866
Y77953
X78740
X78347Y59055
X71260
X59055Y73228
X51968Y83071
X37402Y87402
X30709Y91732
Y101969
X30500Y107500
X37402Y107480
X14961
X9843Y101575
Y91732
X9449Y71260
X30709Y66929
X37402Y70866
X49213Y64567
X89300Y97800
X95700Y109100
X96100Y115200
X94488Y128000
X103905Y136000
X116700
X124800Y132100
X129800Y121200
X109035Y105100
X113700Y170600
X119100Y171300
X123300Y178700
X124100Y181613
X106861Y176500
X82400Y184641
X72300Y184000
X14400Y176700
X64500Y185300
X52400Y237400
X38600Y244100
X34200Y246700
X14961Y258661
Y284252
X41339Y299055
Y304055
Y309055
X63779Y286614
X70866
X77953
X78347Y279413
Y272155
X70472Y272047
X63779
Y279413
X70866
X101500Y278000
X108268Y284055
Y289055
X108268Y294055
Y299055
X108268Y308858
X99100Y305000
X92400Y290200
X119488Y289055
Y294094
X127165Y309055
X137500Y309500
X142476Y309799
X137008Y304055
X147433Y288189
X149929Y279724
X143700Y273700
X130600Y277500
X131102Y244488
X124100Y244104
X124500Y229200
X127600Y231200
X128300Y221500
X124500Y219800
X121600Y224456
X109800Y215300
X107400Y217481
X96850Y227165
X108325Y244112
X102362Y259600
X141400Y251100
X146400Y244931
Y241787
Y238644
Y235500
X152553Y222200
Y217400
X193442Y224400
X203965Y220079
X207480
Y223344
Y216813
X210965Y220079
X225197
X242520Y219685
X270500Y219291
X274016
Y216026
Y222557
X277500Y219291
X294094Y219685
X305848Y219911
X302559Y242520
X294882
X287205
Y251575
X294882
X302559
X302362Y260236
X294685
X287008
X285433Y269094
X285254Y274193
X278740
X274016
Y279705
X278740
X285254Y284528
X292126Y279705
X296850
Y274193
X292126
X303246Y274213
X303543Y269094
X303150Y284528
X252756Y276969
Y273819
Y270500
X243000
X242913Y274016
Y277165
X234646Y274016
X225197Y274016
X225000Y267500
Y262500
X225197Y255906
X227000Y247231
X242900Y247700
Y250865
X249240Y251575
X252756
Y248309
Y254840
X256240Y251575
X243307Y259736
X243298Y263800
X222835Y280709
X190000Y308000
X182500Y309000
X177559Y314961
X177000Y319512
X171677
X166535
X166600Y328600
X173843Y330141
X190000Y318500
X157087Y315064
X152400Y308500
X162500Y304000
X152433Y288000
X152173Y270866
X248763Y188853
X252279
Y192118
Y185587
X255764Y188853
X309364Y216645
Y219911
Y223176
X312848Y219911
X320894Y219685
X324410
Y216419
Y222951
X327894Y219685
X324500Y241000
X332000
X332087Y248425
Y254331
X324410
Y248425
X316732
X316500Y241000
X316142Y266535
X314677Y274488
X320472Y274193
X323500Y279500
X326772Y282392
Y272155
X327559Y263345
X322441
X333858Y277362
X347000Y272500
X351969Y276969
X361024Y277165
X370079
X372441Y267728
X366929Y267717
X360500Y267500
X355906Y267717
X349213Y264961
X357508Y219685
X361024
Y216419
Y222951
X364508Y219685
X366500Y206266
Y203000
Y199734
X369984Y203000
X362984
X394984Y206500
X398500
Y209766
Y203234
X401984Y206500
X401500Y192266
Y189000
Y185734
X404984Y189000
X397984
X450484Y206500
X454000
Y203234
Y209766
X457484Y206500
X454500Y230234
Y233500
Y236766
X457984Y233500
X450984
X447244Y260583
X439370Y260630
Y270079
X447244
X446850Y280709
X439764
X456600Y267200
Y263400
X461600
Y267200
X468898Y274016
X467717Y188583
X618090Y236811
X602362Y253701
X604000Y268700
X600700
X602953Y279528
X602756Y289370
X618100Y276200
Y273400
X623600Y275000
X628090
X633090
X635000Y281500
X631000
X639764Y279528
X640158Y289370
X640500Y296500
X647638Y289764
X659500Y292500
X670500Y290900
X682777Y283465
X694840Y276772
X698779
X702718
X702170Y282712
X708076
X718819Y283071
Y275000
Y268110
Y260039
Y251969
X726890
X732598Y251575
Y254331
X737716
Y251575
X743032Y251969
Y260039
X734961
X726890
X735432Y283070
X744500Y289528
X752500Y283465
X764985Y276772
X768924
X772863
X775647Y283465
X768898Y269685
X745179Y240797
X675179
X673032Y251969
X667717Y251575
Y254331
X662598
Y251575
X656890Y251969
X648819
Y260039
Y268110
X639370Y268701
Y253701
X633090Y236811
X656890Y260039
X664961
X673032
X698819Y269685
X698300Y287600
X705905Y291732
X711437Y294094
X717717Y294055
X727953Y294094
X727100Y304800
X717323Y310630
Y315064
X717343Y319685
Y327213
X722342
X712297Y327258
X702343Y327213
X692343
X685433Y327165
Y321654
Y315748
Y310236
X676600Y311800
X670700Y314500
X663600Y314700
X663479Y311700
X657700Y320299
X647244Y320472
Y314961
Y310236
X639370
Y315064
Y320079
X692343Y305858
X702260Y304200
X706437Y299213
X711800Y310630
X709449Y314961
Y319685
X631000Y187500
X628138Y186860
X790551Y240945
X791339Y247638
X781553Y283465
T02
X37700Y162000
X47700
X57700
X67700
X62700Y172000
X52700
X42700
X72700
T03
X156299Y181613
X164173
X183858Y179638
X191732
X199606
X207480
X148425Y181613
X140551
Y205638
X148425
X110236
X102362
X94488
X86614
X156299
X164173
X183858
X191732
X199606
X207480
T04
X162000Y258588
X172000
X182000
X192000
X202000
X212000
T05
T06
T07
X785236Y150551
X803740
X634449
X615945
X584881Y153386
X574881
Y163386
X584881
Y178150
X574881
X564881
Y163386
Y153386
X565629Y135827
X584133
X532952
X533700Y153386
X523700
Y163386
X513700
Y153386
X514448Y135827
X513700Y178150
X523700
X533700
Y163386
X514448Y90551
Y62992
X565629
Y90551
X138976Y327559
X121260
X532952Y277559
Y250000
Y204724
X533700Y188150
X523700
X513700
X514448Y204724
X565629
X564881Y188150
X574881
X584881
X584133Y204724
Y250000
Y277559
X634449Y223386
Y195827
X803740
Y223386
T08
X803740Y122492
Y132492
X615945Y133280
Y123280
T09
X651180Y78000
X674802Y70126
X698424Y78000
X721180
X744802Y70126
X768424Y78000
Y126031
Y168898
X744802Y161024
X721180Y168898
X698424
X674802Y161024
X651180Y168898
Y126031
X698424
X721180
X143917Y317756
X116319
X651180Y216929
X698424
X721180
X768424
T10
X664882Y41339
X684567
X734882
X754567
X584646
X564961
X533465
X513779
X468898
X449213
X377953
X358268
X314961
X295276
X251969Y41339
X232283
X171260Y41339
X151575
X120079Y41339
X100394
X68898
X49213
X232439Y299213
X252124
X295431
X315117
X358424
X378109
X449368
X469054
X513935
X533620
X565117
X584801
X665038
X684723
X735038
X754723
T11
X19685Y19685
X799213
X19685Y320866
X799213
T12
X32700Y137000
X77700
M30
