G04*
G04 #@! TF.GenerationSoftware,Altium Limited,Altium Designer,19.0.10 (269)*
G04*
G04 Layer_Color=8421504*
%FSLAX25Y25*%
%MOIN*%
G70*
G01*
G75*
%ADD23R,0.03150X0.03543*%
%ADD24R,0.07874X0.03543*%
%ADD25R,0.03543X0.07874*%
%ADD26R,0.05236X0.05236*%
%ADD27C,0.01181*%
%ADD28R,0.03543X0.02756*%
%ADD29R,0.02756X0.03543*%
%ADD30R,0.03543X0.03150*%
%ADD31R,0.02559X0.07677*%
%ADD32R,0.06181X0.07402*%
%ADD33R,0.05512X0.01181*%
%ADD34R,0.07874X0.05906*%
%ADD35R,0.05906X0.05906*%
%ADD36R,0.01181X0.03150*%
%ADD37R,0.03150X0.01181*%
%ADD38R,0.01772X0.05807*%
%ADD39R,0.15827X0.11654*%
%ADD40R,0.02559X0.06004*%
%ADD41R,0.03937X0.03937*%
%ADD42R,0.07402X0.06181*%
%ADD43R,0.01181X0.05512*%
%ADD44R,0.06496X0.02559*%
%ADD45R,0.12008X0.09055*%
%ADD46R,0.02362X0.05118*%
%ADD47R,0.13500X0.04949*%
%ADD48R,0.35500X0.42000*%
%ADD49R,0.02559X0.06299*%
%ADD50C,0.11000*%
%ADD51R,0.03740X0.06496*%
%ADD52R,0.12795X0.06496*%
%ADD53R,0.04724X0.09843*%
%ADD54R,0.27559X0.27559*%
%ADD55R,0.05906X0.09843*%
%ADD56R,0.05512X0.09016*%
%ADD57R,0.22402X0.24331*%
%ADD58R,0.06004X0.02559*%
%ADD59R,0.02165X0.01378*%
%ADD60R,0.02756X0.06299*%
%ADD61R,0.04528X0.02953*%
%ADD62R,0.02756X0.03740*%
%ADD63R,0.04331X0.02362*%
%ADD64R,0.05906X0.07874*%
%ADD65R,0.01772X0.05433*%
%ADD66R,0.05807X0.08268*%
%ADD67R,0.09350X0.07480*%
D23*
X440551Y280315D02*
D03*
X446063D02*
D03*
X477559Y59055D02*
D03*
X472047D02*
D03*
X386614D02*
D03*
X381102D02*
D03*
X323622D02*
D03*
X318110D02*
D03*
X260630D02*
D03*
X255118D02*
D03*
X179921Y59449D02*
D03*
X174409D02*
D03*
X128740Y59449D02*
D03*
X123228D02*
D03*
X77559D02*
D03*
X72047D02*
D03*
X90456Y187100D02*
D03*
X84944D02*
D03*
X74744Y182300D02*
D03*
X80256D02*
D03*
X70056Y225400D02*
D03*
X64544D02*
D03*
X49444D02*
D03*
X54956D02*
D03*
X39244D02*
D03*
X44756D02*
D03*
X99844Y164253D02*
D03*
X105356D02*
D03*
X452559Y58268D02*
D03*
X458071D02*
D03*
X465629Y280315D02*
D03*
X460117D02*
D03*
X667638Y55024D02*
D03*
X662126D02*
D03*
X737638D02*
D03*
X732126D02*
D03*
X37402Y107480D02*
D03*
X31890D02*
D03*
X9402Y107480D02*
D03*
X14913D02*
D03*
X361614Y58268D02*
D03*
X367126D02*
D03*
X235630D02*
D03*
X241142D02*
D03*
X154921D02*
D03*
X160433D02*
D03*
X103740D02*
D03*
X109252D02*
D03*
X52559D02*
D03*
X58071D02*
D03*
X298622D02*
D03*
X304134D02*
D03*
X121653Y309055D02*
D03*
X127165D02*
D03*
D24*
X41339Y309055D02*
D03*
Y304055D02*
D03*
Y299055D02*
D03*
Y294055D02*
D03*
Y289055D02*
D03*
Y284055D02*
D03*
Y279055D02*
D03*
Y274055D02*
D03*
Y269055D02*
D03*
Y264055D02*
D03*
Y259055D02*
D03*
Y254055D02*
D03*
Y249055D02*
D03*
Y244055D02*
D03*
X108268D02*
D03*
Y249055D02*
D03*
Y254055D02*
D03*
Y259055D02*
D03*
Y264055D02*
D03*
Y269055D02*
D03*
Y274055D02*
D03*
Y279055D02*
D03*
Y284055D02*
D03*
Y289055D02*
D03*
Y294055D02*
D03*
Y299055D02*
D03*
Y304055D02*
D03*
Y309055D02*
D03*
D25*
X52303Y240118D02*
D03*
X57303D02*
D03*
X62303D02*
D03*
X67303D02*
D03*
X72303D02*
D03*
X77303D02*
D03*
X82303D02*
D03*
X87303D02*
D03*
X92303D02*
D03*
X97303D02*
D03*
D26*
X63642Y286752D02*
D03*
X70866D02*
D03*
X78091D02*
D03*
X63642Y279528D02*
D03*
X70866D02*
D03*
X78091D02*
D03*
X63642Y272303D02*
D03*
X70866D02*
D03*
X78091D02*
D03*
D27*
X15400Y176700D02*
D03*
X18400D02*
D03*
X182000Y241340D02*
D03*
Y244340D02*
D03*
Y275836D02*
D03*
Y272836D02*
D03*
X172000Y275836D02*
D03*
Y272836D02*
D03*
Y241340D02*
D03*
Y244340D02*
D03*
X240083Y241693D02*
D03*
X237083D02*
D03*
X246532D02*
D03*
X249532D02*
D03*
X127700Y244094D02*
D03*
X124700D02*
D03*
D28*
X94400Y158347D02*
D03*
Y164253D02*
D03*
Y178660D02*
D03*
Y184565D02*
D03*
Y174565D02*
D03*
Y168660D02*
D03*
X449213Y70354D02*
D03*
Y64449D02*
D03*
X468898Y267913D02*
D03*
Y273819D02*
D03*
X698952Y263673D02*
D03*
Y269579D02*
D03*
X768952Y263673D02*
D03*
Y269579D02*
D03*
X37402Y76752D02*
D03*
Y70846D02*
D03*
Y87657D02*
D03*
Y81752D02*
D03*
X358268Y70354D02*
D03*
Y64449D02*
D03*
X232283Y70472D02*
D03*
Y64567D02*
D03*
X151575Y70473D02*
D03*
Y64567D02*
D03*
X100394Y70472D02*
D03*
Y64567D02*
D03*
X49213Y70472D02*
D03*
Y64567D02*
D03*
X295276Y70354D02*
D03*
Y64449D02*
D03*
D29*
X104853Y187100D02*
D03*
X98947D02*
D03*
X152553Y222200D02*
D03*
X146647D02*
D03*
X134253Y217400D02*
D03*
X128347D02*
D03*
X152653D02*
D03*
X146747D02*
D03*
X141047Y277362D02*
D03*
X146953D02*
D03*
X599803Y164961D02*
D03*
X605709D02*
D03*
X791535Y247638D02*
D03*
X797441D02*
D03*
X797441Y252756D02*
D03*
X791535D02*
D03*
X687520Y55024D02*
D03*
X681614D02*
D03*
X630000Y136429D02*
D03*
X635906D02*
D03*
X635953Y131000D02*
D03*
X630047D02*
D03*
X695999Y249606D02*
D03*
X701905D02*
D03*
X757520Y55024D02*
D03*
X751614D02*
D03*
X783661Y136429D02*
D03*
X789567D02*
D03*
X789567Y130929D02*
D03*
X783661D02*
D03*
X765999Y249606D02*
D03*
X771905D02*
D03*
X605709Y170079D02*
D03*
X599803D02*
D03*
X453740Y183563D02*
D03*
X459646D02*
D03*
X453740Y173563D02*
D03*
X459646D02*
D03*
X453740Y163563D02*
D03*
X459646D02*
D03*
X453740Y153563D02*
D03*
X459646D02*
D03*
X103150Y232677D02*
D03*
X97244D02*
D03*
X137992Y309055D02*
D03*
X132087D02*
D03*
D30*
X59644Y230912D02*
D03*
Y225400D02*
D03*
X14961Y284252D02*
D03*
Y278740D02*
D03*
X14961Y258661D02*
D03*
Y264173D02*
D03*
D31*
X69644Y218602D02*
D03*
X64644D02*
D03*
X59644D02*
D03*
X54644D02*
D03*
X49644D02*
D03*
X44644D02*
D03*
X39644D02*
D03*
X34644D02*
D03*
Y181398D02*
D03*
X39644D02*
D03*
X44644D02*
D03*
X49644D02*
D03*
X54644D02*
D03*
X59644D02*
D03*
X64644D02*
D03*
X69644D02*
D03*
D32*
X110700Y176614D02*
D03*
D33*
X119361Y180551D02*
D03*
Y178583D02*
D03*
Y176614D02*
D03*
Y174646D02*
D03*
Y172677D02*
D03*
X102039D02*
D03*
Y174646D02*
D03*
Y176614D02*
D03*
Y178583D02*
D03*
Y180551D02*
D03*
D34*
X193584Y224700D02*
D03*
X161300D02*
D03*
D35*
X135300Y227409D02*
D03*
D36*
X132347Y233117D02*
D03*
X134316D02*
D03*
X136284D02*
D03*
X138253D02*
D03*
Y221700D02*
D03*
X136284D02*
D03*
X134316D02*
D03*
X132347D02*
D03*
D37*
X141009Y230361D02*
D03*
Y228393D02*
D03*
Y226424D02*
D03*
Y224456D02*
D03*
X129591D02*
D03*
Y226424D02*
D03*
Y228393D02*
D03*
Y230361D02*
D03*
D38*
X291121Y108966D02*
D03*
X293680D02*
D03*
X296239D02*
D03*
X298798D02*
D03*
X301358D02*
D03*
X303917D02*
D03*
X306476D02*
D03*
X309035D02*
D03*
X311594D02*
D03*
X314153D02*
D03*
X316712D02*
D03*
X319271D02*
D03*
Y132100D02*
D03*
X316712D02*
D03*
X314153D02*
D03*
X311594D02*
D03*
X309035D02*
D03*
X306476D02*
D03*
X303917D02*
D03*
X301358D02*
D03*
X298798D02*
D03*
X296239D02*
D03*
X293680D02*
D03*
X291121D02*
D03*
X96239Y108966D02*
D03*
X98798D02*
D03*
X101357D02*
D03*
X103917D02*
D03*
X106476D02*
D03*
X109035D02*
D03*
X111594D02*
D03*
X114153D02*
D03*
X116712D02*
D03*
X119271D02*
D03*
X121830D02*
D03*
X124389D02*
D03*
Y132100D02*
D03*
X121830D02*
D03*
X119271D02*
D03*
X116712D02*
D03*
X114153D02*
D03*
X111594D02*
D03*
X109035D02*
D03*
X106476D02*
D03*
X103917D02*
D03*
X101357D02*
D03*
X98798D02*
D03*
X96239D02*
D03*
D39*
X305196Y120533D02*
D03*
X110314D02*
D03*
D40*
X226500Y131210D02*
D03*
X221500D02*
D03*
X216500D02*
D03*
X211500D02*
D03*
X206500D02*
D03*
X201500D02*
D03*
X196500D02*
D03*
X191500D02*
D03*
Y109856D02*
D03*
X196500D02*
D03*
X201500D02*
D03*
X206500D02*
D03*
X211500D02*
D03*
X216500D02*
D03*
X221500D02*
D03*
X226500D02*
D03*
D41*
X478740Y68386D02*
D03*
Y77835D02*
D03*
Y73110D02*
D03*
X470866Y68386D02*
D03*
Y77835D02*
D03*
Y73110D02*
D03*
X447244Y270079D02*
D03*
Y260630D02*
D03*
Y265354D02*
D03*
X439370Y270079D02*
D03*
Y260630D02*
D03*
Y265354D02*
D03*
X639370Y314961D02*
D03*
Y310236D02*
D03*
Y319685D02*
D03*
X709528Y314961D02*
D03*
Y310236D02*
D03*
Y319685D02*
D03*
X647244Y314961D02*
D03*
Y310236D02*
D03*
Y319685D02*
D03*
X717402Y314961D02*
D03*
Y310236D02*
D03*
Y319685D02*
D03*
X387795Y68386D02*
D03*
Y77835D02*
D03*
Y73110D02*
D03*
X379921Y68386D02*
D03*
Y77835D02*
D03*
Y73110D02*
D03*
X261811Y68504D02*
D03*
Y77953D02*
D03*
Y73228D02*
D03*
X253937Y68504D02*
D03*
Y77953D02*
D03*
Y73228D02*
D03*
X181102Y68504D02*
D03*
Y77953D02*
D03*
Y73228D02*
D03*
X173228Y68504D02*
D03*
Y77953D02*
D03*
Y73228D02*
D03*
X129921Y68504D02*
D03*
Y77953D02*
D03*
Y73228D02*
D03*
X122047Y68504D02*
D03*
Y77953D02*
D03*
Y73228D02*
D03*
X78740Y68504D02*
D03*
Y77953D02*
D03*
Y73228D02*
D03*
X70866Y68504D02*
D03*
Y77953D02*
D03*
Y73228D02*
D03*
X324803Y68386D02*
D03*
Y77835D02*
D03*
Y73110D02*
D03*
X316929Y68386D02*
D03*
Y77835D02*
D03*
Y73110D02*
D03*
D42*
X459055D02*
D03*
X459133Y265354D02*
D03*
X368110Y73110D02*
D03*
X242126Y73228D02*
D03*
X161417Y73228D02*
D03*
X110236Y73228D02*
D03*
X59055D02*
D03*
X305118Y73110D02*
D03*
D43*
X455118Y81772D02*
D03*
X457087D02*
D03*
X459055D02*
D03*
X461024D02*
D03*
X462992D02*
D03*
Y64449D02*
D03*
X461024D02*
D03*
X459055D02*
D03*
X457087D02*
D03*
X455118D02*
D03*
X463070Y256693D02*
D03*
X461101D02*
D03*
X459133D02*
D03*
X457164D02*
D03*
X455196D02*
D03*
Y274016D02*
D03*
X457164D02*
D03*
X459133D02*
D03*
X461101D02*
D03*
X463070D02*
D03*
X364173Y81772D02*
D03*
X366142D02*
D03*
X368110D02*
D03*
X370079D02*
D03*
X372047D02*
D03*
Y64449D02*
D03*
X370079D02*
D03*
X368110D02*
D03*
X366142D02*
D03*
X364173D02*
D03*
X238189Y81890D02*
D03*
X240158D02*
D03*
X242126D02*
D03*
X244094D02*
D03*
X246063D02*
D03*
Y64567D02*
D03*
X244094D02*
D03*
X242126D02*
D03*
X240158D02*
D03*
X238189D02*
D03*
X157480Y81890D02*
D03*
X159449D02*
D03*
X161417D02*
D03*
X163386D02*
D03*
X165354D02*
D03*
Y64567D02*
D03*
X163386D02*
D03*
X161417D02*
D03*
X159449D02*
D03*
X157480D02*
D03*
X106299Y81890D02*
D03*
X108268D02*
D03*
X110236D02*
D03*
X112205D02*
D03*
X114173D02*
D03*
Y64567D02*
D03*
X112205D02*
D03*
X110236D02*
D03*
X108268D02*
D03*
X106299D02*
D03*
X55118Y81890D02*
D03*
X57087D02*
D03*
X59055D02*
D03*
X61024D02*
D03*
X62992D02*
D03*
Y64567D02*
D03*
X61024D02*
D03*
X59055D02*
D03*
X57087D02*
D03*
X55118D02*
D03*
X301181Y81772D02*
D03*
X303150D02*
D03*
X305118D02*
D03*
X307087D02*
D03*
X309055D02*
D03*
Y64449D02*
D03*
X307087D02*
D03*
X305118D02*
D03*
X303150D02*
D03*
X301181D02*
D03*
D44*
X467520Y188563D02*
D03*
Y183563D02*
D03*
Y178563D02*
D03*
Y173563D02*
D03*
Y168563D02*
D03*
Y163563D02*
D03*
Y158563D02*
D03*
Y153563D02*
D03*
X493110D02*
D03*
Y158563D02*
D03*
Y163563D02*
D03*
Y168563D02*
D03*
Y173563D02*
D03*
Y178563D02*
D03*
Y183563D02*
D03*
Y188563D02*
D03*
D45*
X625197Y78216D02*
D03*
Y105776D02*
D03*
X794488Y77823D02*
D03*
Y105382D02*
D03*
D46*
X633071Y116083D02*
D03*
X629331Y124350D02*
D03*
X636811D02*
D03*
X786614Y115295D02*
D03*
X782874Y123563D02*
D03*
X790354D02*
D03*
X794488Y232874D02*
D03*
X790748Y241142D02*
D03*
X798228D02*
D03*
X602756Y150551D02*
D03*
X599016Y158819D02*
D03*
X606496D02*
D03*
D47*
X698952Y276626D02*
D03*
Y256626D02*
D03*
X768952Y276626D02*
D03*
Y256626D02*
D03*
D48*
X659952Y266626D02*
D03*
X729952D02*
D03*
D49*
X633090Y275000D02*
D03*
X628090D02*
D03*
X623091D02*
D03*
X618090D02*
D03*
Y236811D02*
D03*
X623091D02*
D03*
X628090D02*
D03*
X633090D02*
D03*
D50*
X309408Y219685D02*
D03*
X225197Y220079D02*
D03*
X361024Y219685D02*
D03*
X324565D02*
D03*
X294250D02*
D03*
X207480Y220079D02*
D03*
X242913Y219685D02*
D03*
X274016D02*
D03*
D51*
X370079Y276969D02*
D03*
X361024D02*
D03*
X351969D02*
D03*
D52*
X361024Y252165D02*
D03*
D53*
X252756Y273819D02*
D03*
X242913D02*
D03*
X233071D02*
D03*
Y252165D02*
D03*
X242913D02*
D03*
X252756D02*
D03*
D54*
X324565Y249803D02*
D03*
D55*
X315510Y276969D02*
D03*
X333620D02*
D03*
D56*
X303246Y276949D02*
D03*
X285254D02*
D03*
D57*
X294250Y251614D02*
D03*
D58*
X9402Y101752D02*
D03*
Y96752D02*
D03*
Y91752D02*
D03*
Y86752D02*
D03*
Y81752D02*
D03*
Y76752D02*
D03*
Y71752D02*
D03*
Y66752D02*
D03*
X30756D02*
D03*
Y71752D02*
D03*
Y76752D02*
D03*
Y81752D02*
D03*
Y86752D02*
D03*
Y91752D02*
D03*
Y96752D02*
D03*
Y101752D02*
D03*
D59*
X405807Y173031D02*
D03*
Y169095D02*
D03*
X413091D02*
D03*
Y173031D02*
D03*
D60*
X409449Y171063D02*
D03*
D61*
X526896Y143701D02*
D03*
X520203D02*
D03*
X578077D02*
D03*
X571384D02*
D03*
X520504Y196850D02*
D03*
X527197D02*
D03*
X571685D02*
D03*
X578378D02*
D03*
D62*
X103937Y227166D02*
D03*
X96851D02*
D03*
X157087Y315064D02*
D03*
X164173D02*
D03*
X181496Y314961D02*
D03*
X174409D02*
D03*
D63*
X14961Y274410D02*
D03*
Y268898D02*
D03*
D64*
X135300Y244958D02*
D03*
Y277242D02*
D03*
D65*
X174236Y324000D02*
D03*
X171677D02*
D03*
X169118D02*
D03*
X166559D02*
D03*
X164000D02*
D03*
D66*
X158095Y325417D02*
D03*
X180142D02*
D03*
D67*
X180585Y334472D02*
D03*
X157652D02*
D03*
M02*
