G04*
G04 #@! TF.GenerationSoftware,Altium Limited,Altium Designer,19.0.10 (269)*
G04*
G04 Layer_Color=16711935*
%FSLAX25Y25*%
%MOIN*%
G70*
G01*
G75*
%ADD68C,0.03937*%
%ADD70R,0.03950X0.04343*%
%ADD74C,0.01981*%
%ADD75R,0.04343X0.03556*%
%ADD76R,0.03556X0.04343*%
%ADD77R,0.04343X0.03950*%
%ADD80R,0.06312X0.01981*%
%ADD87R,0.03359X0.06804*%
%ADD115C,0.07198*%
%ADD116C,0.05930*%
%ADD117R,0.06800X0.06800*%
%ADD118C,0.06800*%
%ADD119C,0.07591*%
%ADD120R,0.07591X0.07591*%
%ADD121C,0.11430*%
%ADD122C,0.08674*%
%ADD123R,0.07887X0.07887*%
%ADD124C,0.07887*%
%ADD125C,0.07296*%
%ADD126C,0.20485*%
%ADD127C,0.06902*%
%ADD128C,0.03162*%
%ADD167R,0.06312X0.02572*%
%ADD168R,0.09855X0.07099*%
%ADD169R,0.07099X0.03359*%
%ADD170R,0.05524X0.02572*%
%ADD171R,0.07887X0.05524*%
%ADD172R,0.06509X0.03556*%
%ADD173R,0.05918X0.07887*%
%ADD174R,0.07296X0.04540*%
%ADD175R,0.07296X0.13595*%
%ADD176R,0.07887X0.05918*%
%ADD177R,0.02513X0.06808*%
%ADD178R,0.04934X0.03162*%
%ADD179R,0.03162X0.04934*%
%ADD180R,0.04737X0.04147*%
D68*
X151200Y251900D02*
X150647Y252661D01*
X149753Y252370D01*
Y251430D01*
X150647Y251139D01*
X151200Y251900D01*
D70*
X225197Y255906D02*
D03*
X230709D02*
D03*
X225197Y261942D02*
D03*
X230709D02*
D03*
X225197Y274016D02*
D03*
X230709D02*
D03*
X225197Y267979D02*
D03*
X230709D02*
D03*
X152173Y270866D02*
D03*
X157685D02*
D03*
D74*
X148900Y251900D02*
D03*
X151900D02*
D03*
D75*
X108268Y284055D02*
D03*
Y278150D02*
D03*
X108268Y299055D02*
D03*
Y304961D02*
D03*
X177297Y308858D02*
D03*
Y314764D02*
D03*
X131890Y277362D02*
D03*
Y283268D02*
D03*
X171916Y314764D02*
D03*
Y308858D02*
D03*
X166535Y314764D02*
D03*
Y308858D02*
D03*
D76*
X771453Y283465D02*
D03*
X765547D02*
D03*
X781553D02*
D03*
X775647D02*
D03*
X708076Y282712D02*
D03*
X702170D02*
D03*
X697976D02*
D03*
X692070D02*
D03*
X711437Y294094D02*
D03*
X717343D02*
D03*
X712343Y299213D02*
D03*
X706437D02*
D03*
X602953Y279528D02*
D03*
X608858D02*
D03*
X602953Y289528D02*
D03*
X608858D02*
D03*
X151378Y315354D02*
D03*
X157283D02*
D03*
X157882Y275984D02*
D03*
X151976D02*
D03*
X125394Y270079D02*
D03*
X119488D02*
D03*
X139173D02*
D03*
X133268D02*
D03*
X131496Y250000D02*
D03*
X137402D02*
D03*
X125394Y294094D02*
D03*
X119488D02*
D03*
X125394Y289055D02*
D03*
X119488D02*
D03*
D77*
X685433Y315748D02*
D03*
Y310236D02*
D03*
Y327165D02*
D03*
Y321654D02*
D03*
X355906Y267717D02*
D03*
Y273228D02*
D03*
X361417Y267728D02*
D03*
Y273240D02*
D03*
X366929Y267717D02*
D03*
Y273228D02*
D03*
X372441Y267728D02*
D03*
Y273240D02*
D03*
X315354Y279705D02*
D03*
Y274193D02*
D03*
X320472Y279705D02*
D03*
Y274193D02*
D03*
X322441Y257833D02*
D03*
Y263345D02*
D03*
X327559Y257833D02*
D03*
Y263345D02*
D03*
X278740Y279705D02*
D03*
Y274193D02*
D03*
X274016Y279705D02*
D03*
Y274193D02*
D03*
X292126Y279705D02*
D03*
Y274193D02*
D03*
X296850Y279705D02*
D03*
Y274193D02*
D03*
X182677Y309055D02*
D03*
Y314567D02*
D03*
X171850Y326378D02*
D03*
Y320866D02*
D03*
X166535Y326378D02*
D03*
Y320866D02*
D03*
X182677Y326772D02*
D03*
Y321260D02*
D03*
D80*
X673699Y279528D02*
D03*
Y281496D02*
D03*
Y283465D02*
D03*
Y285433D02*
D03*
Y287402D02*
D03*
X656376D02*
D03*
Y285433D02*
D03*
Y283465D02*
D03*
Y281496D02*
D03*
Y279528D02*
D03*
X743699D02*
D03*
Y281496D02*
D03*
Y283465D02*
D03*
Y285433D02*
D03*
Y287402D02*
D03*
X726376D02*
D03*
Y285433D02*
D03*
Y283465D02*
D03*
Y281496D02*
D03*
Y279528D02*
D03*
D87*
X692343Y305858D02*
D03*
X697342D02*
D03*
X702343D02*
D03*
X707342D02*
D03*
X712343D02*
D03*
X717343D02*
D03*
X722342D02*
D03*
X727343D02*
D03*
Y327213D02*
D03*
X722342D02*
D03*
X717343D02*
D03*
X712343D02*
D03*
X707342D02*
D03*
X702343D02*
D03*
X697342D02*
D03*
X692343D02*
D03*
D115*
X32700Y137000D02*
D03*
X77700D02*
D03*
D116*
X37700Y162000D02*
D03*
X42700Y172000D02*
D03*
X47700Y162000D02*
D03*
X52700Y172000D02*
D03*
X57700Y162000D02*
D03*
X62700Y172000D02*
D03*
X67700Y162000D02*
D03*
X72700Y172000D02*
D03*
D117*
X162000Y258588D02*
D03*
D118*
X172000D02*
D03*
X182000D02*
D03*
X192000D02*
D03*
X202000D02*
D03*
X212000D02*
D03*
X110236Y205638D02*
D03*
X86614D02*
D03*
X94488D02*
D03*
X102362D02*
D03*
X164173Y181613D02*
D03*
X140551D02*
D03*
X148425D02*
D03*
X156299D02*
D03*
X164173Y205638D02*
D03*
X140551D02*
D03*
X148425D02*
D03*
X156299D02*
D03*
X207480D02*
D03*
X183858D02*
D03*
X191732D02*
D03*
X199606D02*
D03*
X207480Y179638D02*
D03*
X183858D02*
D03*
X191732D02*
D03*
X199606D02*
D03*
D119*
X533700Y188150D02*
D03*
Y178150D02*
D03*
X523700Y188150D02*
D03*
Y178150D02*
D03*
X513700Y188150D02*
D03*
X584881D02*
D03*
Y178150D02*
D03*
X574881Y188150D02*
D03*
Y178150D02*
D03*
X564881Y188150D02*
D03*
Y153386D02*
D03*
Y163386D02*
D03*
X574881Y153386D02*
D03*
Y163386D02*
D03*
X584881Y153386D02*
D03*
X513700D02*
D03*
Y163386D02*
D03*
X523700Y153386D02*
D03*
Y163386D02*
D03*
X533700Y153386D02*
D03*
D120*
X513700Y178150D02*
D03*
X564881D02*
D03*
X584881Y163386D02*
D03*
X533700D02*
D03*
D121*
X449213Y41339D02*
D03*
X468898D02*
D03*
X469054Y299213D02*
D03*
X449368D02*
D03*
X665038D02*
D03*
X684723D02*
D03*
X735038D02*
D03*
X754723D02*
D03*
X664882Y41339D02*
D03*
X684567D02*
D03*
X734882D02*
D03*
X754567D02*
D03*
X232439Y299213D02*
D03*
X252124D02*
D03*
X295431D02*
D03*
X315117D02*
D03*
X251969Y41339D02*
D03*
X232283D02*
D03*
X171260Y41339D02*
D03*
X151575D02*
D03*
X120079Y41339D02*
D03*
X100394D02*
D03*
X68898D02*
D03*
X49213D02*
D03*
X533465D02*
D03*
X513779D02*
D03*
X584646D02*
D03*
X564961D02*
D03*
X513935Y299213D02*
D03*
X533620D02*
D03*
X565117D02*
D03*
X584801D02*
D03*
X377953Y41339D02*
D03*
X358268D02*
D03*
X314961D02*
D03*
X295276D02*
D03*
X358424Y299213D02*
D03*
X378109D02*
D03*
D122*
X651180Y216929D02*
D03*
X698424D02*
D03*
Y168898D02*
D03*
X651180D02*
D03*
X674802Y161024D02*
D03*
X651180Y126031D02*
D03*
X698424D02*
D03*
Y78000D02*
D03*
X651180D02*
D03*
X674802Y70126D02*
D03*
X721180Y216929D02*
D03*
X768424D02*
D03*
Y168898D02*
D03*
X721180D02*
D03*
X744802Y161024D02*
D03*
X721180Y126031D02*
D03*
X768424D02*
D03*
Y78000D02*
D03*
X721180D02*
D03*
X744802Y70126D02*
D03*
X143917Y317756D02*
D03*
X116319D02*
D03*
D123*
X615945Y133280D02*
D03*
X803740Y132492D02*
D03*
D124*
X615945Y123280D02*
D03*
X803740Y122492D02*
D03*
D125*
X615945Y150551D02*
D03*
X634449D02*
D03*
Y195827D02*
D03*
Y223386D02*
D03*
X785236Y150551D02*
D03*
X803740D02*
D03*
Y195827D02*
D03*
Y223386D02*
D03*
X532952Y135827D02*
D03*
X514448D02*
D03*
Y90551D02*
D03*
Y62992D02*
D03*
X584133Y135827D02*
D03*
X565629D02*
D03*
Y90551D02*
D03*
Y62992D02*
D03*
X514448Y204724D02*
D03*
X532952D02*
D03*
Y250000D02*
D03*
Y277559D02*
D03*
X565629Y204724D02*
D03*
X584133D02*
D03*
Y250000D02*
D03*
Y277559D02*
D03*
D126*
X799213Y320866D02*
D03*
Y19685D02*
D03*
X19685D02*
D03*
Y320866D02*
D03*
D127*
X138976Y327559D02*
D03*
X121260D02*
D03*
D128*
X41339Y299055D02*
D03*
X108268Y289055D02*
D03*
X108268Y294055D02*
D03*
D167*
X674961Y312261D02*
D03*
Y314821D02*
D03*
Y317379D02*
D03*
Y319939D02*
D03*
X657639D02*
D03*
Y317379D02*
D03*
Y314821D02*
D03*
Y312261D02*
D03*
D168*
X665153Y253150D02*
D03*
X682476D02*
D03*
X735153D02*
D03*
X752476D02*
D03*
D169*
X602362Y253701D02*
D03*
Y258701D02*
D03*
Y263701D02*
D03*
Y268701D02*
D03*
X640551D02*
D03*
Y263701D02*
D03*
Y258701D02*
D03*
Y253701D02*
D03*
D170*
X660116Y274213D02*
D03*
Y271654D02*
D03*
Y269094D02*
D03*
Y266535D02*
D03*
X669959D02*
D03*
Y269094D02*
D03*
Y271654D02*
D03*
Y274213D02*
D03*
X730117D02*
D03*
Y271654D02*
D03*
Y269094D02*
D03*
Y266535D02*
D03*
X739959D02*
D03*
Y269094D02*
D03*
Y271654D02*
D03*
Y274213D02*
D03*
D171*
X684723Y283465D02*
D03*
Y271654D02*
D03*
X754723Y283465D02*
D03*
Y271654D02*
D03*
D172*
X640551Y279528D02*
D03*
Y284528D02*
D03*
Y289528D02*
D03*
Y294528D02*
D03*
X618504D02*
D03*
Y289528D02*
D03*
Y284528D02*
D03*
Y279528D02*
D03*
D173*
X349213Y264961D02*
D03*
Y275197D02*
D03*
X326772Y282392D02*
D03*
Y272155D02*
D03*
X316142Y255146D02*
D03*
Y265382D02*
D03*
X285254Y282392D02*
D03*
Y272155D02*
D03*
X303246Y282392D02*
D03*
Y272155D02*
D03*
X190157Y318366D02*
D03*
Y308130D02*
D03*
D174*
X243298Y254745D02*
D03*
Y263800D02*
D03*
Y272855D02*
D03*
D175*
X268102Y263800D02*
D03*
D176*
X222835Y280709D02*
D03*
X233071D02*
D03*
D177*
X139929Y283417D02*
D03*
X142433D02*
D03*
X144929D02*
D03*
X147433D02*
D03*
X149929D02*
D03*
X152433D02*
D03*
X154929D02*
D03*
X157433D02*
D03*
X159929D02*
D03*
X162433D02*
D03*
Y304772D02*
D03*
X159929D02*
D03*
X157433D02*
D03*
X154929D02*
D03*
X152433D02*
D03*
X149929D02*
D03*
X147433D02*
D03*
X144929D02*
D03*
X142433D02*
D03*
X139929D02*
D03*
D178*
X118110Y279724D02*
D03*
X126772Y275984D02*
D03*
Y283465D02*
D03*
D179*
X136221Y255906D02*
D03*
X139961Y264567D02*
D03*
X132480D02*
D03*
X122441Y255906D02*
D03*
X126181Y264567D02*
D03*
X118701D02*
D03*
D180*
X177165Y327165D02*
D03*
Y320866D02*
D03*
M02*
